<?xml version="1.0" encoding="UTF-8"?>
<!DOCTYPE svg PUBLIC "-//W3C//DTD SVG 1.1//EN" "http://www.w3.org/Graphics/SVG/1.1/DTD/svg11.dtd">
<svg xmlns="http://www.w3.org/2000/svg" version="1.1" width="465px" height="108px" style="shape-rendering:geometricPrecision; text-rendering:geometricPrecision; image-rendering:optimizeQuality; fill-rule:evenodd; clip-rule:evenodd" xmlns:xlink="http://www.w3.org/1999/xlink">
<g><path style="opacity:0.246" fill="#bcbcbc" d="M 112.5,-0.5 C 112.833,-0.5 113.167,-0.5 113.5,-0.5C 113.5,24.5 113.5,49.5 113.5,74.5C 117.434,74.9789 121.101,74.3122 124.5,72.5C 125.107,72.6236 125.44,72.9569 125.5,73.5C 121.486,75.3342 117.153,76.0008 112.5,75.5C 112.5,50.1667 112.5,24.8333 112.5,-0.5 Z"/></g>
<g><path style="opacity:1" fill="#101010" d="M 113.5,-0.5 C 116.833,-0.5 120.167,-0.5 123.5,-0.5C 123.5,9.83333 123.5,20.1667 123.5,30.5C 124.791,30.7373 125.791,30.404 126.5,29.5C 126.842,28.6618 127.508,28.3284 128.5,28.5C 134.13,27.7081 139.797,27.3748 145.5,27.5C 149.385,28.1092 152.718,29.7758 155.5,32.5C 155.738,34.4044 156.738,35.7377 158.5,36.5C 166.289,46.5629 166.455,56.8962 159,67.5C 149.286,77.8897 138.119,79.8897 125.5,73.5C 125.44,72.9569 125.107,72.6236 124.5,72.5C 121.101,74.3122 117.434,74.9789 113.5,74.5C 113.5,49.5 113.5,24.5 113.5,-0.5 Z M 137.5,37.5 C 138.167,37.5 138.833,37.5 139.5,37.5C 141.302,38.4582 143.302,39.1249 145.5,39.5C 148.19,41.1935 150.19,43.5268 151.5,46.5C 152.092,49.1272 152.425,51.7938 152.5,54.5C 150.971,58.7007 148.304,62.034 144.5,64.5C 140.5,65.8333 136.5,65.8333 132.5,64.5C 131.71,63.5987 130.71,62.9321 129.5,62.5C 128.833,61.1667 127.833,60.1667 126.5,59.5C 122.674,51.3949 124.341,44.7282 131.5,39.5C 133.698,39.1249 135.698,38.4582 137.5,37.5 Z"/></g>
<g><path style="opacity:0.173" fill="#cccccc" d="M 360.5,-0.5 C 360.833,-0.5 361.167,-0.5 361.5,-0.5C 361.5,24.5 361.5,49.5 361.5,74.5C 365.434,74.9789 369.101,74.3122 372.5,72.5C 373.107,72.6236 373.44,72.9569 373.5,73.5C 369.486,75.3342 365.153,76.0008 360.5,75.5C 360.5,50.1667 360.5,24.8333 360.5,-0.5 Z"/></g>
<g><path style="opacity:1" fill="#0a0a0a" d="M 361.5,-0.5 C 365.167,-0.5 368.833,-0.5 372.5,-0.5C 372.334,9.83871 372.5,20.172 373,30.5C 374.87,28.7811 377.037,27.7811 379.5,27.5C 385.5,27.5 391.5,27.5 397.5,27.5C 397.5,30.5 397.5,33.5 397.5,36.5C 392.821,36.3342 388.155,36.5008 383.5,37C 382.584,37.2784 381.918,37.7784 381.5,38.5C 378.239,40.0902 375.573,42.4235 373.5,45.5C 371.518,48.3726 371.185,51.3726 372.5,54.5C 372.12,56.698 372.787,58.3646 374.5,59.5C 376.525,61.1964 378.525,62.863 380.5,64.5C 380.918,65.2216 381.584,65.7216 382.5,66C 387.489,66.4993 392.489,66.6659 397.5,66.5C 397.5,69.8333 397.5,73.1667 397.5,76.5C 392.833,76.5 388.167,76.5 383.5,76.5C 383.167,76.5 382.833,76.5 382.5,76.5C 380.485,75.0762 378.152,74.4095 375.5,74.5C 374.833,74.1667 374.167,73.8333 373.5,73.5C 373.44,72.9569 373.107,72.6236 372.5,72.5C 369.101,74.3122 365.434,74.9789 361.5,74.5C 361.5,49.5 361.5,24.5 361.5,-0.5 Z"/></g>
<g><path style="opacity:1" fill="#f07468" d="M 7.5,0.5 C 10.1522,0.409526 12.4855,1.07619 14.5,2.5C 12.4727,2.66212 10.4727,2.49546 8.5,2C 7.94404,1.61742 7.61071,1.11742 7.5,0.5 Z"/></g>
<g><path style="opacity:1" fill="#f92112" d="M -0.5,-0.5 C 2.16667,-0.5 4.83333,-0.5 7.5,-0.5C 7.5,-0.166667 7.5,0.166667 7.5,0.5C 7.61071,1.11742 7.94404,1.61742 8.5,2C 10.4727,2.49546 12.4727,2.66212 14.5,2.5C 16.0204,5.8448 18.6871,7.51147 22.5,7.5C 22.281,8.67504 22.6143,9.67504 23.5,10.5C 25.5178,11.8592 27.5178,13.1925 29.5,14.5C 33.1154,18.0592 35.4488,22.3926 36.5,27.5C 36.5,30.5 36.5,33.5 36.5,36.5C 35.209,36.2627 34.209,36.596 33.5,37.5C 29.6888,38.6453 25.6888,38.8119 21.5,38C 20.5769,35.9592 20.2436,33.7925 20.5,31.5C 20.1455,28.9333 19.4788,26.4333 18.5,24C 17.6443,22.4053 16.3109,21.572 14.5,21.5C 13.656,19.2407 11.9893,18.2407 9.5,18.5C 8.36465,16.7868 6.69798,16.1201 4.5,16.5C 2.83333,16.5 1.16667,16.5 -0.5,16.5C -0.5,10.8333 -0.5,5.16667 -0.5,-0.5 Z"/></g>
<g><path style="opacity:0.949" fill="#ef6d5c" d="M 36.5,-0.5 C 39.5,-0.5 42.5,-0.5 45.5,-0.5C 46.8333,0.166667 48.1667,0.833333 49.5,1.5C 45.7852,1.57695 42.1185,1.24362 38.5,0.5C 38.5,5.16667 38.5,9.83333 38.5,14.5C 42.3603,14.0541 45.3603,15.3875 47.5,18.5C 44.0035,17.4352 40.5035,16.4352 37,15.5C 36.5006,10.1771 36.334,4.84372 36.5,-0.5 Z"/></g>
<g><path style="opacity:1" fill="#f80905" d="M 49.5,1.5 C 50.6354,3.21321 52.302,3.87988 54.5,3.5C 56.674,3.74973 58.3406,4.74973 59.5,6.5C 61.1859,10.036 63.8526,12.7027 67.5,14.5C 68.1547,17.9639 69.1547,21.2973 70.5,24.5C 71.5,24.5 72.5,24.5 73.5,24.5C 73.5,24.8333 73.5,25.1667 73.5,25.5C 73.5,29.1667 73.5,32.8333 73.5,36.5C 69.1667,36.5 64.8333,36.5 60.5,36.5C 60.6493,32.5223 59.6493,28.8556 57.5,25.5C 56.4231,24.2949 55.0898,23.6282 53.5,23.5C 53.5,23.1667 53.5,22.8333 53.5,22.5C 52.5539,19.6874 50.5539,18.354 47.5,18.5C 45.3603,15.3875 42.3603,14.0541 38.5,14.5C 38.5,9.83333 38.5,5.16667 38.5,0.5C 42.1185,1.24362 45.7852,1.57695 49.5,1.5 Z"/></g>
<g><path style="opacity:0.925" fill="#ec857c" d="M 49.5,1.5 C 51.5529,1.40206 53.2196,2.06873 54.5,3.5C 52.302,3.87988 50.6354,3.21321 49.5,1.5 Z"/></g>
<g><path style="opacity:1" fill="#e95342" d="M 14.5,2.5 C 17.8489,3.16945 20.5156,4.83612 22.5,7.5C 18.6871,7.51147 16.0204,5.8448 14.5,2.5 Z"/></g>
<g><path style="opacity:0.31" fill="#afafaf" d="M 123.5,-0.5 C 123.833,-0.5 124.167,-0.5 124.5,-0.5C 123.859,9.88925 124.526,19.8893 126.5,29.5C 125.791,30.404 124.791,30.7373 123.5,30.5C 123.5,20.1667 123.5,9.83333 123.5,-0.5 Z"/></g>
<g><path style="opacity:1" fill="#e9574c" d="M 22.5,7.5 C 25.8333,8.83333 28.1667,11.1667 29.5,14.5C 27.5178,13.1925 25.5178,11.8592 23.5,10.5C 22.6143,9.67504 22.281,8.67504 22.5,7.5 Z"/></g>
<g><path style="opacity:1" fill="#ea6552" d="M 59.5,6.5 C 63.1884,8.18836 65.8551,10.855 67.5,14.5C 63.8526,12.7027 61.1859,10.036 59.5,6.5 Z"/></g>
<g><path style="opacity:1" fill="#141414" d="M 449.5,11.5 C 449.5,16.8333 449.5,22.1667 449.5,27.5C 454.5,27.5 459.5,27.5 464.5,27.5C 464.5,30.8333 464.5,34.1667 464.5,37.5C 459.5,37.5 454.5,37.5 449.5,37.5C 449.178,43.358 449.511,49.0247 450.5,54.5C 451.68,57.5396 453.347,60.2063 455.5,62.5C 455.821,64.0481 456.821,64.7148 458.5,64.5C 460.435,65.1495 462.435,65.4828 464.5,65.5C 464.5,69.5 464.5,73.5 464.5,77.5C 459.736,77.2311 455.403,75.8978 451.5,73.5C 450.738,71.7376 449.404,70.7376 447.5,70.5C 442.624,66.7575 439.791,61.7575 439,55.5C 438.5,40.8371 438.333,26.1705 438.5,11.5C 442.167,11.5 445.833,11.5 449.5,11.5 Z"/></g>
<g><path style="opacity:0.287" fill="#c0c0c0" d="M 449.5,11.5 C 450.487,16.3054 450.821,21.3054 450.5,26.5C 455.167,26.5 459.833,26.5 464.5,26.5C 464.5,26.8333 464.5,27.1667 464.5,27.5C 459.5,27.5 454.5,27.5 449.5,27.5C 449.5,22.1667 449.5,16.8333 449.5,11.5 Z"/></g>
<g><path style="opacity:0.14" fill="#b9b9b9" d="M 412.5,11.5 C 412.5,27.1667 412.5,42.8333 412.5,58.5C 415.833,58.5 419.167,58.5 422.5,58.5C 422.5,42.8333 422.5,27.1667 422.5,11.5C 423.496,27.3246 423.83,43.3246 423.5,59.5C 419.5,59.5 415.5,59.5 411.5,59.5C 411.17,43.3246 411.504,27.3246 412.5,11.5 Z"/></g>
<g><path style="opacity:1" fill="#020202" d="M 412.5,11.5 C 415.833,11.5 419.167,11.5 422.5,11.5C 422.5,27.1667 422.5,42.8333 422.5,58.5C 419.167,58.5 415.833,58.5 412.5,58.5C 412.5,42.8333 412.5,27.1667 412.5,11.5 Z"/></g>
<g><path style="opacity:0.949" fill="#f8877e" d="M 4.5,16.5 C 6.69798,16.1201 8.36465,16.7868 9.5,18.5C 7.59699,18.2041 5.93033,17.5375 4.5,16.5 Z"/></g>
<g><path style="opacity:1" fill="#ea5749" d="M 47.5,18.5 C 50.5539,18.354 52.5539,19.6874 53.5,22.5C 51.2048,21.5254 49.2048,20.1921 47.5,18.5 Z"/></g>
<g><path style="opacity:0.871" fill="#f06f63" d="M 9.5,18.5 C 11.9893,18.2407 13.656,19.2407 14.5,21.5C 12.5659,20.8897 10.8993,19.8897 9.5,18.5 Z"/></g>
<g><path style="opacity:1" fill="#ea4f3f" d="M 67.5,14.5 C 70.5023,17.1612 72.5023,20.4945 73.5,24.5C 72.5,24.5 71.5,24.5 70.5,24.5C 69.1547,21.2973 68.1547,17.9639 67.5,14.5 Z"/></g>
<g><path style="opacity:1" fill="#f16454" d="M 14.5,21.5 C 16.3109,21.572 17.6443,22.4053 18.5,24C 19.4788,26.4333 20.1455,28.9333 20.5,31.5C 18.9647,27.9473 16.9647,24.614 14.5,21.5 Z"/></g>
<g><path style="opacity:0.825" fill="#757575" d="M 199.5,26.5 C 199.56,25.9569 199.893,25.6236 200.5,25.5C 202.982,26.0671 205.316,26.7337 207.5,27.5C 204.721,27.7214 202.054,27.388 199.5,26.5 Z"/></g>
<g><path style="opacity:0.847" fill="#6f6f6f" d="M 333.5,28.5 C 327.879,27.6463 322.212,27.313 316.5,27.5C 322.289,24.9738 327.955,25.3071 333.5,28.5 Z"/></g>
<g><path style="opacity:0.839" fill="#717171" d="M 145.5,27.5 C 139.797,27.3748 134.13,27.7081 128.5,28.5C 131.526,26.9814 134.859,26.3148 138.5,26.5C 141.025,26.5034 143.359,26.8367 145.5,27.5 Z"/></g>
<g><path style="opacity:1" fill="#1a1a1a" d="M 199.5,26.5 C 202.054,27.388 204.721,27.7214 207.5,27.5C 218.14,30.9801 224.306,38.3134 226,49.5C 226.667,57.8333 226.667,66.1667 226,74.5C 221.669,76.0751 217.502,75.7418 213.5,73.5C 204.694,78.7881 196.027,78.7881 187.5,73.5C 187.027,72.0937 186.027,71.427 184.5,71.5C 175.857,64.9775 172.69,56.3108 175,45.5C 175.67,42.8261 176.837,40.4927 178.5,38.5C 179.906,38.0269 180.573,37.0269 180.5,35.5C 185.392,29.5551 191.725,26.5551 199.5,26.5 Z M 201.5,37.5 C 203.302,38.4582 205.302,39.1249 207.5,39.5C 213.278,44.1656 215.278,50.1656 213.5,57.5C 212.094,57.9731 211.427,58.9731 211.5,60.5C 204.472,66.6915 197.139,67.0249 189.5,61.5C 189.573,59.9731 188.906,58.9731 187.5,58.5C 186.756,54.8815 186.423,51.2148 186.5,47.5C 187.674,46.4863 188.34,45.153 188.5,43.5C 191.922,39.6238 196.255,37.6238 201.5,37.5 Z"/></g>
<g><path style="opacity:0.816" fill="#777777" d="M 271.5,27.5 C 265.464,27.3599 259.464,27.6932 253.5,28.5C 259.43,25.5038 265.43,25.1705 271.5,27.5 Z"/></g>
<g><path style="opacity:1" fill="#181818" d="M 271.5,27.5 C 273.284,27.8925 274.95,28.5592 276.5,29.5C 277.035,31.4456 278.368,32.4456 280.5,32.5C 285.226,35.9469 287.892,40.6136 288.5,46.5C 288.5,55.8333 288.5,65.1667 288.5,74.5C 285.167,74.5 281.833,74.5 278.5,74.5C 278.827,65.3178 278.493,56.3178 277.5,47.5C 272.739,37.9697 265.406,35.4697 255.5,40C 252.533,42.1005 250.7,44.9338 250,48.5C 249.5,57.4938 249.334,66.4938 249.5,75.5C 245.563,75.7935 241.73,75.4601 238,74.5C 237.333,60.1667 237.333,45.8333 238,31.5C 243.323,31.0206 248.49,30.0206 253.5,28.5C 259.464,27.6932 265.464,27.3599 271.5,27.5 Z"/></g>
<g><path style="opacity:1" fill="#151515" d="M 316.5,27.5 C 322.212,27.313 327.879,27.6463 333.5,28.5C 338.542,29.8498 342.208,32.8498 344.5,37.5C 344.427,39.0269 345.094,40.0269 346.5,40.5C 346.833,41.1667 347.167,41.8333 347.5,42.5C 348.416,57.4755 348.749,72.4755 348.5,87.5C 348.5,87.8333 348.5,88.1667 348.5,88.5C 347.326,89.5137 346.66,90.847 346.5,92.5C 345.665,96.3237 343.665,99.4904 340.5,102C 337.208,104.176 333.875,106.009 330.5,107.5C 327.5,107.5 324.5,107.5 321.5,107.5C 319.095,106.232 316.428,105.565 313.5,105.5C 304.651,101.834 299.651,95.1678 298.5,85.5C 298.5,84.5 298.5,83.5 298.5,82.5C 302.167,82.5 305.833,82.5 309.5,82.5C 312.241,94.8713 319.575,98.8713 331.5,94.5C 333.833,94.1667 335.167,92.8333 335.5,90.5C 335.989,89.0048 336.655,87.6715 337.5,86.5C 338.812,81.9848 338.812,77.3181 337.5,72.5C 336.893,72.6236 336.56,72.9569 336.5,73.5C 336.158,74.3382 335.492,74.6716 334.5,74.5C 332.447,74.4021 330.78,75.0687 329.5,76.5C 325.39,77.7346 321.223,77.7346 317,76.5C 313.941,76.0559 311.441,74.7226 309.5,72.5C 309.027,71.0937 308.027,70.427 306.5,70.5C 297.887,62.3738 295.72,52.7071 300,41.5C 300.697,39.4156 301.864,37.7489 303.5,36.5C 305.167,35.5 306.5,34.1667 307.5,32.5C 309.728,29.5505 312.728,27.8838 316.5,27.5 Z M 336.5,45.5 C 337.207,48.7861 337.54,52.1194 337.5,55.5C 336.655,56.6715 335.989,58.0048 335.5,59.5C 333.833,60.5 332.5,61.8333 331.5,63.5C 321.184,67.5111 313.851,64.5111 309.5,54.5C 309.575,51.7938 309.908,49.1272 310.5,46.5C 315.624,38.302 322.624,36.1353 331.5,40C 333.402,41.7297 335.069,43.563 336.5,45.5 Z"/></g>
<g><path style="opacity:0.945" fill="#7d7d7d" d="M 276.5,29.5 C 278.23,30.0256 279.564,31.0256 280.5,32.5C 278.368,32.4456 277.035,31.4456 276.5,29.5 Z"/></g>
<g><path style="opacity:0.608" fill="#f7918f" d="M 57.5,30.5 C 58.1174,30.6107 58.6174,30.944 59,31.5C 59.4955,33.4727 59.6621,35.4727 59.5,37.5C 58.5933,35.3432 57.9267,33.0098 57.5,30.5 Z"/></g>
<g><path style="opacity:0.757" fill="#9b9b9b" d="M 155.5,32.5 C 157.262,33.2623 158.262,34.5956 158.5,36.5C 156.738,35.7377 155.738,34.4044 155.5,32.5 Z"/></g>
<g><path style="opacity:0.773" fill="#ffa39a" d="M 36.5,27.5 C 37.3138,29.631 37.8138,31.9644 38,34.5C 38.985,35.8141 40.1516,36.8141 41.5,37.5C 40.1667,37.5 38.8333,37.5 37.5,37.5C 37.5,42.8333 37.5,48.1667 37.5,53.5C 36.6733,48.3491 36.1733,43.0158 36,37.5C 35.2303,38.5981 34.397,38.5981 33.5,37.5C 34.209,36.596 35.209,36.2627 36.5,36.5C 36.5,33.5 36.5,30.5 36.5,27.5 Z"/></g>
<g><path style="opacity:0.647" fill="#ffbdba" d="M 74.5,29.5 C 75.2663,31.6843 75.9329,34.0177 76.5,36.5C 76.2907,37.086 75.9574,37.586 75.5,38C 69.9836,38.8174 64.6503,38.6507 59.5,37.5C 64.5,37.5 69.5,37.5 74.5,37.5C 74.5,34.8333 74.5,32.1667 74.5,29.5 Z"/></g>
<g><path style="opacity:0.671" fill="#858585" d="M 307.5,32.5 C 306.5,34.1667 305.167,35.5 303.5,36.5C 303.833,34.1667 305.167,32.8333 307.5,32.5 Z"/></g>
<g><path style="opacity:0.826" fill="#e53e37" d="M 53.5,23.5 C 55.0898,23.6282 56.4231,24.2949 57.5,25.5C 59.6493,28.8556 60.6493,32.5223 60.5,36.5C 64.8333,36.5 69.1667,36.5 73.5,36.5C 73.5,32.8333 73.5,29.1667 73.5,25.5C 74.4345,26.5676 74.7678,27.901 74.5,29.5C 74.5,32.1667 74.5,34.8333 74.5,37.5C 69.5,37.5 64.5,37.5 59.5,37.5C 59.6621,35.4727 59.4955,33.4727 59,31.5C 58.6174,30.944 58.1174,30.6107 57.5,30.5C 56.4196,28.0038 55.0862,25.6705 53.5,23.5 Z"/></g>
<g><path style="opacity:0.565" fill="#6b6b6b" d="M 379.5,27.5 C 385.645,26.5098 391.978,26.1765 398.5,26.5C 398.5,30.1667 398.5,33.8333 398.5,37.5C 392.788,37.313 387.121,37.6463 381.5,38.5C 381.918,37.7784 382.584,37.2784 383.5,37C 388.155,36.5008 392.821,36.3342 397.5,36.5C 397.5,33.5 397.5,30.5 397.5,27.5C 391.5,27.5 385.5,27.5 379.5,27.5 Z"/></g>
<g><path style="opacity:0.706" fill="#a0a0a0" d="M 139.5,37.5 C 142.01,37.0535 144.01,37.7202 145.5,39.5C 143.302,39.1249 141.302,38.4582 139.5,37.5 Z"/></g>
<g><path style="opacity:0.569" fill="#848484" d="M 180.5,35.5 C 180.573,37.0269 179.906,38.0269 178.5,38.5C 178.427,36.9731 179.094,35.9731 180.5,35.5 Z"/></g>
<g><path style="opacity:0.816" fill="#8e8e8e" d="M 201.5,37.5 C 204.01,37.0535 206.01,37.7202 207.5,39.5C 205.302,39.1249 203.302,38.4582 201.5,37.5 Z"/></g>
<g><path style="opacity:0.596" fill="#f8a49b" d="M 43.5,37.5 C 46.1522,37.4095 48.4855,38.0762 50.5,39.5C 47.8478,39.5905 45.5145,38.9238 43.5,37.5 Z"/></g>
<g><path style="opacity:0.004" fill="#d2d2d2" d="M 137.5,37.5 C 135.698,38.4582 133.698,39.1249 131.5,39.5C 132.99,37.7202 134.99,37.0535 137.5,37.5 Z"/></g>
<g><path style="opacity:0.247" fill="#cfcfcf" d="M 464.5,37.5 C 464.5,37.8333 464.5,38.1667 464.5,38.5C 459.833,38.5 455.167,38.5 450.5,38.5C 450.5,43.8333 450.5,49.1667 450.5,54.5C 449.511,49.0247 449.178,43.358 449.5,37.5C 454.5,37.5 459.5,37.5 464.5,37.5 Z"/></g>
<g><path style="opacity:1" fill="#ea6154" d="M 9.5,38.5 C 11.5529,38.4021 13.2196,39.0687 14.5,40.5C 12.2188,40.9227 10.5521,40.256 9.5,38.5 Z"/></g>
<g><path style="opacity:0.427" fill="#959595" d="M 344.5,37.5 C 345.906,37.9731 346.573,38.9731 346.5,40.5C 345.094,40.0269 344.427,39.0269 344.5,37.5 Z"/></g>
<g><path style="opacity:0.906" fill="#e88181" d="M 50.5,39.5 C 52.403,39.7959 54.0697,40.4625 55.5,41.5C 53.302,41.8799 51.6354,41.2132 50.5,39.5 Z"/></g>
<g><path style="opacity:1" fill="#f88878" d="M 17.5,41.5 C 19.0269,41.427 20.0269,42.0937 20.5,43.5C 18.8773,44.4908 17.8773,43.8241 17.5,41.5 Z"/></g>
<g><path style="opacity:1" fill="#ed665e" d="M 20.5,43.5 C 22.754,44.1237 24.4206,45.457 25.5,47.5C 23.2054,46.8645 21.5387,45.5311 20.5,43.5 Z"/></g>
<g><path style="opacity:1" fill="#e65645" d="M 55.5,41.5 C 61.1337,44.1353 65.467,48.1353 68.5,53.5C 64.6722,50.1785 60.6722,47.0119 56.5,44C 55.7476,43.3292 55.4142,42.4959 55.5,41.5 Z"/></g>
<g><path style="opacity:0.278" fill="#b8b8b8" d="M 188.5,43.5 C 188.34,45.153 187.674,46.4863 186.5,47.5C 186.229,45.6203 186.896,44.287 188.5,43.5 Z"/></g>
<g><path style="opacity:1" fill="#f70906" d="M 41.5,37.5 C 42.1667,37.5 42.8333,37.5 43.5,37.5C 45.5145,38.9238 47.8478,39.5905 50.5,39.5C 51.6354,41.2132 53.302,41.8799 55.5,41.5C 55.4142,42.4959 55.7476,43.3292 56.5,44C 60.6722,47.0119 64.6722,50.1785 68.5,53.5C 68.7394,55.4672 68.4061,57.3005 67.5,59C 68.4491,59.6172 69.2825,59.4506 70,58.5C 72.5396,63.178 73.7062,68.178 73.5,73.5C 68.8333,73.5 64.1667,73.5 59.5,73.5C 59.7406,71.1016 59.0739,69.1016 57.5,67.5C 56.2441,63.9837 54.2441,60.9837 51.5,58.5C 50.7659,57.2921 50.4326,55.9587 50.5,54.5C 46.5341,53.8379 42.5341,53.5045 38.5,53.5C 38.1667,53.5 37.8333,53.5 37.5,53.5C 37.5,48.1667 37.5,42.8333 37.5,37.5C 38.8333,37.5 40.1667,37.5 41.5,37.5 Z"/></g>
<g><path style="opacity:0.71" fill="#6e6e6e" d="M 310.5,46.5 C 309.908,49.1272 309.575,51.7938 309.5,54.5C 308.083,51.6596 308.416,48.993 310.5,46.5 Z"/></g>
<g><path style="opacity:0.433" fill="#888888" d="M 151.5,46.5 C 153.584,48.993 153.917,51.6596 152.5,54.5C 152.425,51.7938 152.092,49.1272 151.5,46.5 Z"/></g>
<g><path style="opacity:0.365" fill="#8c8c8c" d="M 336.5,45.5 C 337.972,47.1175 338.639,49.1175 338.5,51.5C 338.489,53.0451 338.156,54.3784 337.5,55.5C 337.54,52.1194 337.207,48.7861 336.5,45.5 Z"/></g>
<g><path style="opacity:0.422" fill="#999999" d="M 373.5,45.5 C 373.037,48.4824 372.704,51.4824 372.5,54.5C 371.185,51.3726 371.518,48.3726 373.5,45.5 Z"/></g>
<g><path style="opacity:1" fill="#f9180c" d="M -0.5,36.5 C 3.03995,36.7526 6.37328,37.4192 9.5,38.5C 10.5521,40.256 12.2188,40.9227 14.5,40.5C 15.791,40.2627 16.791,40.596 17.5,41.5C 17.8773,43.8241 18.8773,44.4908 20.5,43.5C 21.5387,45.5311 23.2054,46.8645 25.5,47.5C 27.1667,48.5 28.5,49.8333 29.5,51.5C 29.427,53.0269 30.0937,54.0269 31.5,54.5C 33.9743,56.8976 35.3076,59.8976 35.5,63.5C 36.0508,66.8067 36.3841,70.1401 36.5,73.5C 31.8333,73.5 27.1667,73.5 22.5,73.5C 21.5367,69.8993 20.87,66.2326 20.5,62.5C 19.5,62.5 18.5,62.5 17.5,62.5C 15.8333,61.5 14.5,60.1667 13.5,58.5C 13.0269,57.0937 12.0269,56.427 10.5,56.5C 6.91129,55.1806 3.24462,54.1806 -0.5,53.5C -0.5,47.8333 -0.5,42.1667 -0.5,36.5 Z"/></g>
<g><path style="opacity:0.769" fill="#f79792" d="M 29.5,51.5 C 30.9063,51.9731 31.573,52.9731 31.5,54.5C 30.0937,54.0269 29.427,53.0269 29.5,51.5 Z"/></g>
<g><path style="opacity:0.365" fill="#b3b3b3" d="M 288.5,46.5 C 289.494,55.9856 289.827,65.6522 289.5,75.5C 285.5,75.5 281.5,75.5 277.5,75.5C 277.5,66.1667 277.5,56.8333 277.5,47.5C 278.493,56.3178 278.827,65.3178 278.5,74.5C 281.833,74.5 285.167,74.5 288.5,74.5C 288.5,65.1667 288.5,55.8333 288.5,46.5 Z"/></g>
<g><path style="opacity:1" fill="#f06654" d="M 38.5,53.5 C 42.5341,53.5045 46.5341,53.8379 50.5,54.5C 50.4326,55.9587 50.7659,57.2921 51.5,58.5C 47.4205,55.9518 43.0872,54.2851 38.5,53.5 Z"/></g>
<g><path style="opacity:0.435" fill="#ffa8a2" d="M 10.5,56.5 C 12.0269,56.427 13.0269,57.0937 13.5,58.5C 11.9731,58.573 10.9731,57.9063 10.5,56.5 Z"/></g>
<g><path style="opacity:0.851" fill="#7b7b7b" d="M 372.5,54.5 C 373.537,55.9303 374.204,57.597 374.5,59.5C 372.787,58.3646 372.12,56.698 372.5,54.5 Z"/></g>
<g><path style="opacity:0.286" fill="#bababa" d="M 347.5,42.5 C 348.29,43.6085 348.79,44.9419 349,46.5C 349.827,60.3396 349.661,74.0062 348.5,87.5C 348.749,72.4755 348.416,57.4755 347.5,42.5 Z"/></g>
<g><path style="opacity:0.42" fill="#9b9b9b" d="M 213.5,57.5 C 213.573,59.0269 212.906,60.0269 211.5,60.5C 211.427,58.9731 212.094,57.9731 213.5,57.5 Z"/></g>
<g><path style="opacity:0.82" fill="#898989" d="M 126.5,59.5 C 127.833,60.1667 128.833,61.1667 129.5,62.5C 127.5,62.5 126.5,61.5 126.5,59.5 Z"/></g>
<g><path style="opacity:0.612" fill="#848484" d="M 187.5,58.5 C 188.906,58.9731 189.573,59.9731 189.5,61.5C 188.094,61.0269 187.427,60.0269 187.5,58.5 Z"/></g>
<g><path style="opacity:0.612" fill="#888888" d="M 335.5,59.5 C 335.167,61.8333 333.833,63.1667 331.5,63.5C 332.5,61.8333 333.833,60.5 335.5,59.5 Z"/></g>
<g><path style="opacity:0.914" fill="#818181" d="M 455.5,62.5 C 456.71,62.9321 457.71,63.5987 458.5,64.5C 456.821,64.7148 455.821,64.0481 455.5,62.5 Z"/></g>
<g><path style="opacity:0.424" fill="#9e9e9e" d="M 132.5,64.5 C 136.5,65.8333 140.5,65.8333 144.5,64.5C 142.883,65.9723 140.883,66.639 138.5,66.5C 136.117,66.639 134.117,65.9723 132.5,64.5 Z"/></g>
<g><path style="opacity:0.365" fill="#a4a4a4" d="M 380.5,64.5 C 386.455,65.3635 392.455,65.6968 398.5,65.5C 398.5,69.5 398.5,73.5 398.5,77.5C 393.305,77.8205 388.305,77.4872 383.5,76.5C 388.167,76.5 392.833,76.5 397.5,76.5C 397.5,73.1667 397.5,69.8333 397.5,66.5C 392.489,66.6659 387.489,66.4993 382.5,66C 381.584,65.7216 380.918,65.2216 380.5,64.5 Z"/></g>
<g><path style="opacity:0.999" fill="#010101" d="M 412.5,65.5 C 415.833,65.5 419.167,65.5 422.5,65.5C 422.5,68.5 422.5,71.5 422.5,74.5C 419.167,74.5 415.833,74.5 412.5,74.5C 412.5,71.5 412.5,68.5 412.5,65.5 Z"/></g>
<g><path style="opacity:0.52" fill="#858585" d="M 423.5,74.5 C 423.167,74.5 422.833,74.5 422.5,74.5C 422.5,71.5 422.5,68.5 422.5,65.5C 419.167,65.5 415.833,65.5 412.5,65.5C 412.5,65.1667 412.5,64.8333 412.5,64.5C 415.962,63.5184 419.629,63.185 423.5,63.5C 423.5,67.1667 423.5,70.8333 423.5,74.5 Z"/></g>
<g><path style="opacity:0.765" fill="#848484" d="M 306.5,70.5 C 308.027,70.427 309.027,71.0937 309.5,72.5C 307.973,72.573 306.973,71.9063 306.5,70.5 Z"/></g>
<g><path style="opacity:0.824" fill="#858585" d="M 447.5,70.5 C 449.404,70.7376 450.738,71.7376 451.5,73.5C 449.596,73.2624 448.262,72.2624 447.5,70.5 Z"/></g>
<g><path style="opacity:0.514" fill="#848484" d="M 184.5,71.5 C 186.027,71.427 187.027,72.0937 187.5,73.5C 185.973,73.573 184.973,72.9063 184.5,71.5 Z"/></g>
<g><path style="opacity:1" fill="#d42d24" d="M 17.5,62.5 C 18.5,62.5 19.5,62.5 20.5,62.5C 20.87,66.2326 21.5367,69.8993 22.5,73.5C 27.1667,73.5 31.8333,73.5 36.5,73.5C 31.6946,74.4872 26.6946,74.8205 21.5,74.5C 21.7373,73.209 21.404,72.209 20.5,71.5C 19.6976,68.4262 18.6976,65.4262 17.5,62.5 Z"/></g>
<g><path style="opacity:1" fill="#d8291f" d="M 68.5,53.5 C 72.1104,57.3964 74.1104,62.0631 74.5,67.5C 74.5,69.8333 74.5,72.1667 74.5,74.5C 69.3054,74.8205 64.3054,74.4872 59.5,73.5C 64.1667,73.5 68.8333,73.5 73.5,73.5C 73.7062,68.178 72.5396,63.178 70,58.5C 69.2825,59.4506 68.4491,59.6172 67.5,59C 68.4061,57.3005 68.7394,55.4672 68.5,53.5 Z"/></g>
<g><path style="opacity:0.316" fill="#fc9e9e" d="M 35.5,63.5 C 37.048,66.5445 38.048,69.8779 38.5,73.5C 38.2907,74.086 37.9574,74.586 37.5,75C 31.8431,75.4994 26.1764,75.6661 20.5,75.5C 20.5,74.1667 20.5,72.8333 20.5,71.5C 21.404,72.209 21.7373,73.209 21.5,74.5C 26.6946,74.8205 31.6946,74.4872 36.5,73.5C 36.3841,70.1401 36.0508,66.8067 35.5,63.5 Z"/></g>
<g><path style="opacity:0.318" fill="#fd9f9c" d="M 57.5,67.5 C 59.0739,69.1016 59.7406,71.1016 59.5,73.5C 64.3054,74.4872 69.3054,74.8205 74.5,74.5C 74.5,72.1667 74.5,69.8333 74.5,67.5C 75.2829,69.3432 75.9495,71.3432 76.5,73.5C 76.2907,74.086 75.9574,74.586 75.5,75C 69.8431,75.4994 64.1764,75.6661 58.5,75.5C 58.4249,72.7938 58.0916,70.1272 57.5,67.5 Z"/></g>
<g><path style="opacity:0.36" fill="#b5b5b5" d="M 412.5,64.5 C 412.5,64.8333 412.5,65.1667 412.5,65.5C 412.5,68.5 412.5,71.5 412.5,74.5C 415.833,74.5 419.167,74.5 422.5,74.5C 422.833,74.5 423.167,74.5 423.5,74.5C 419.702,75.4834 415.702,75.8168 411.5,75.5C 411.185,71.6286 411.518,67.9619 412.5,64.5 Z"/></g>
<g><path style="opacity:0.106" fill="#c5c5c5" d="M 334.5,74.5 C 333.22,75.9313 331.553,76.5979 329.5,76.5C 330.78,75.0687 332.447,74.4021 334.5,74.5 Z"/></g>
<g><path style="opacity:0.631" fill="#787878" d="M 375.5,74.5 C 378.152,74.4095 380.485,75.0762 382.5,76.5C 379.848,76.5905 377.515,75.9238 375.5,74.5 Z"/></g>
<g><path style="opacity:0.282" fill="#a9a9a9" d="M 336.5,73.5 C 336.56,72.9569 336.893,72.6236 337.5,72.5C 338.812,77.3181 338.812,81.9848 337.5,86.5C 337.818,81.9677 337.485,77.6344 336.5,73.5 Z"/></g>
<g><path style="opacity:0.143" fill="#dcdcdc" d="M 309.5,82.5 C 305.833,82.5 302.167,82.5 298.5,82.5C 298.5,83.5 298.5,84.5 298.5,85.5C 297.566,84.4324 297.232,83.099 297.5,81.5C 301.702,81.1832 305.702,81.5166 309.5,82.5 Z"/></g>
<g><path style="opacity:0.361" fill="#a5a5a5" d="M 348.5,88.5 C 348.771,90.3797 348.104,91.713 346.5,92.5C 346.66,90.847 347.326,89.5137 348.5,88.5 Z"/></g>
<g><path style="opacity:0.675" fill="#898989" d="M 335.5,90.5 C 335.167,92.8333 333.833,94.1667 331.5,94.5C 332.5,92.8333 333.833,91.5 335.5,90.5 Z"/></g>
<g><path style="opacity:0.627" fill="#787878" d="M 313.5,105.5 C 316.428,105.565 319.095,106.232 321.5,107.5C 319.833,107.5 318.167,107.5 316.5,107.5C 315.5,106.833 314.5,106.167 313.5,105.5 Z"/></g>
</svg>
