<?xml version="1.0" encoding="UTF-8"?>
<!DOCTYPE svg PUBLIC "-//W3C//DTD SVG 1.1//EN" "http://www.w3.org/Graphics/SVG/1.1/DTD/svg11.dtd">
<svg xmlns="http://www.w3.org/2000/svg" version="1.1" width="794px" height="201px" style="shape-rendering:geometricPrecision; text-rendering:geometricPrecision; image-rendering:optimizeQuality; fill-rule:evenodd; clip-rule:evenodd" xmlns:xlink="http://www.w3.org/1999/xlink">
<g><path style="opacity:0.959" fill="#2d3e50" d="M 102.5,0.5 C 108.848,-0.11559 113.682,2.21774 117,7.5C 117.667,41.8333 117.667,76.1667 117,110.5C 108.849,138.988 90.0161,154.321 60.5,156.5C 42.1386,155.736 26.9719,148.402 15,134.5C -3.56907,104.106 0.264267,76.9389 26.5,53C 49.2755,37.9183 72.1088,37.7516 95,52.5C 95.8072,38.6339 95.6406,24.8006 94.5,11C 95.9294,6.42259 98.5961,2.92259 102.5,0.5 Z M 52.5,64.5 C 72.179,62.5842 86.0123,70.5842 94,88.5C 98.4094,108.749 91.2427,123.249 72.5,132C 56.8784,136.306 43.7118,132.472 33,120.5C 22.2912,103.567 23.7912,87.7339 37.5,73C 41.9779,69.0985 46.9779,66.2651 52.5,64.5 Z"/></g>
<g><path style="opacity:0.959" fill="#2d3e50" d="M 486.5,0.5 C 492.848,-0.11559 497.682,2.21774 501,7.5C 501.667,41.8333 501.667,76.1667 501,110.5C 493.065,139.272 474.232,154.605 444.5,156.5C 409.603,153.103 390.603,133.937 387.5,99C 389.016,71.6422 402.683,53.3089 428.5,44C 446.719,39.1245 463.552,41.9578 479,52.5C 479.823,38.5917 479.656,24.7583 478.5,11C 479.883,6.45897 482.55,2.95897 486.5,0.5 Z M 437.5,64.5 C 456.77,62.8811 470.27,70.8811 478,88.5C 482.417,108.744 475.25,123.244 456.5,132C 440.915,136.314 427.749,132.48 417,120.5C 404.946,99.5562 408.78,82.0562 428.5,68C 431.571,66.7043 434.571,65.5377 437.5,64.5 Z"/></g>
<g><path style="opacity:1" fill="#2d3e50" d="M 793.5,1.5 C 793.5,67.8333 793.5,134.167 793.5,200.5C 753.5,200.5 713.5,200.5 673.5,200.5C 673.5,134.167 673.5,67.8333 673.5,1.5C 713.5,1.5 753.5,1.5 793.5,1.5 Z"/></g>
<g><path style="opacity:0.913" fill="#2d3e50" d="M 143.5,15.5 C 154.407,15.566 158.907,20.8993 157,31.5C 152.067,38.7593 145.9,40.0927 138.5,35.5C 132.782,26.9878 134.448,20.3211 143.5,15.5 Z"/></g>
<g><path style="opacity:0.914" fill="#2d3e50" d="M 527.5,15.5 C 538.407,15.566 542.907,20.8993 541,31.5C 536.592,38.1358 530.759,39.8024 523.5,36.5C 516.716,27.9666 518.05,20.9666 527.5,15.5 Z"/></g>
<g><path style="opacity:0.942" fill="#2d3e50" d="M 141.5,42.5 C 148.387,41.286 153.553,43.6193 157,49.5C 157.667,82.5 157.667,115.5 157,148.5C 154.908,153.472 151.075,155.805 145.5,155.5C 139.762,155.272 136.262,152.272 135,146.5C 134.333,115.167 134.333,83.8333 135,52.5C 135.435,47.9448 137.602,44.6115 141.5,42.5 Z"/></g>
<g><path style="opacity:0.952" fill="#2d3e50" d="M 219.5,42.5 C 236.667,41.6104 251.667,46.777 264.5,58C 268.752,64.502 268.085,70.502 262.5,76C 257.193,78.0753 252.193,77.4087 247.5,74C 233.092,63.072 218.426,62.7386 203.5,73C 188.893,88.1836 187.393,104.35 199,121.5C 215.733,136.898 232.9,137.398 250.5,123C 262.417,119.929 267.917,124.429 267,136.5C 265.539,140.26 263.039,143.093 259.5,145C 230.853,162.224 204.686,159.058 181,135.5C 163.569,109.694 164.569,84.694 184,60.5C 193.939,50.614 205.773,44.614 219.5,42.5 Z"/></g>
<g><path style="opacity:0.943" fill="#2d3e50" d="M 525.5,42.5 C 532.387,41.286 537.553,43.6193 541,49.5C 541.667,82.5 541.667,115.5 541,148.5C 538.908,153.472 535.075,155.805 529.5,155.5C 523.312,155.148 519.812,151.815 519,145.5C 518.333,114.833 518.333,84.1667 519,53.5C 519.235,48.5598 521.402,44.8932 525.5,42.5 Z"/></g>
<g><path style="opacity:0.958" fill="#2d3e50" d="M 321.5,43.5 C 356.95,42.7992 378.117,59.7992 385,94.5C 385.515,128.613 369.015,149.113 335.5,156C 311.474,157.904 292.974,148.737 280,128.5C 265.516,96.9313 272.35,71.0979 300.5,51C 307.302,47.5687 314.302,45.0687 321.5,43.5 Z M 321.5,66.5 C 348.67,65.5056 362.17,78.5056 362,105.5C 354.318,130.258 338.152,138.424 313.5,130C 295.944,118.957 291.111,103.79 299,84.5C 304.048,75.271 311.548,69.271 321.5,66.5 Z"/></g>
<g><path style="opacity:0.957" fill="#2d3e50" d="M 566.5,43.5 C 574.96,41.6454 580.793,44.6454 584,52.5C 589.821,48.1742 596.321,45.3408 603.5,44C 632.791,40.0595 653.958,51.2262 667,77.5C 668.202,80.7735 669.202,84.1069 670,87.5C 670.667,108.5 670.667,129.5 670,150.5C 664.568,156.142 658.401,156.976 651.5,153C 650.107,151.829 649.273,150.329 649,148.5C 648.667,130.5 648.333,112.5 648,94.5C 644.579,76.581 633.745,66.9144 615.5,65.5C 600.84,66.582 590.673,73.9153 585,87.5C 583.716,107.115 583.049,126.782 583,146.5C 581.992,152.938 578.158,155.938 571.5,155.5C 565.762,155.272 562.262,152.272 561,146.5C 560.333,115.5 560.333,84.5 561,53.5C 561.543,49.4096 563.377,46.0762 566.5,43.5 Z"/></g>
<g><path style="opacity:1" fill="#fbfbfc" d="M 724.5,43.5 C 757.391,42.2304 778.891,57.2304 789,88.5C 789.667,112.167 789.667,135.833 789,159.5C 788.09,164.651 786.09,169.318 783,173.5C 761.575,198.315 735.742,204.482 705.5,192C 694.617,185.451 686.117,176.617 680,165.5C 678.604,155.228 683.104,150.395 693.5,151C 698.22,153.92 701.387,158.087 703,163.5C 716.679,177.971 732.846,181.471 751.5,174C 758,170.167 763.167,165 767,158.5C 767.667,153.833 767.667,149.167 767,144.5C 759.982,150.512 751.816,154.012 742.5,155C 713.28,157.433 692.78,145.266 681,118.5C 672.53,80.1439 687.03,55.1439 724.5,43.5 Z"/></g>
<g><path style="opacity:1" fill="#2e3e50" d="M 724.5,65.5 C 744.861,62.7588 759.028,70.7588 767,89.5C 770.637,110.732 762.47,125.232 742.5,133C 727.175,136.226 714.675,131.726 705,119.5C 693.218,94.7536 699.718,76.7536 724.5,65.5 Z"/></g>
</svg>
