<?xml version="1.0" encoding="UTF-8"?>
<!DOCTYPE svg PUBLIC "-//W3C//DTD SVG 1.1//EN" "http://www.w3.org/Graphics/SVG/1.1/DTD/svg11.dtd">
<svg xmlns="http://www.w3.org/2000/svg" version="1.1" width="707px" height="353px" style="shape-rendering:geometricPrecision; text-rendering:geometricPrecision; image-rendering:optimizeQuality; fill-rule:evenodd; clip-rule:evenodd" xmlns:xlink="http://www.w3.org/1999/xlink">
<g><path style="opacity:0.631" fill="#f1aaa5" d="M 341.5,21.5 C 348.989,20.3443 356.655,20.1777 364.5,21C 368.09,21.3106 371.423,22.144 374.5,23.5C 373.833,23.5 373.167,23.5 372.5,23.5C 369.545,22.8413 366.545,22.5079 363.5,22.5C 356.352,21.5084 349.019,21.175 341.5,21.5 Z"/></g>
<g><path style="opacity:1" fill="#d7574a" d="M 341.5,21.5 C 349.019,21.175 356.352,21.5084 363.5,22.5C 353.102,22.385 342.769,23.0517 332.5,24.5C 333.5,23.8333 334.5,23.1667 335.5,22.5C 337.265,21.5386 339.265,21.2053 341.5,21.5 Z"/></g>
<g><path style="opacity:0.863" fill="#f19693" d="M 335.5,22.5 C 334.5,23.1667 333.5,23.8333 332.5,24.5C 331.167,24.5 329.833,24.5 328.5,24.5C 330.515,23.0762 332.848,22.4095 335.5,22.5 Z"/></g>
<g><path style="opacity:0.965" fill="#e8918a" d="M 328.5,24.5 C 326.898,26.0739 324.898,26.7406 322.5,26.5C 324.102,24.9261 326.102,24.2594 328.5,24.5 Z"/></g>
<g><path style="opacity:1" fill="#e94235" d="M 363.5,22.5 C 366.545,22.5079 369.545,22.8413 372.5,23.5C 375.105,26.1095 378.105,28.2762 381.5,30C 381.167,30.3333 380.833,30.6667 380.5,31C 382.527,31.4978 384.527,31.3311 386.5,30.5C 388.784,31.6134 391.117,32.6134 393.5,33.5C 395.026,36.1908 396.36,38.8575 397.5,41.5C 394.61,41.722 391.943,41.0553 389.5,39.5C 388.77,41.3413 388.103,43.1746 387.5,45C 390.146,45.4974 392.813,45.6641 395.5,45.5C 395.5,46.8333 395.5,48.1667 395.5,49.5C 392.326,49.9975 388.993,49.9975 385.5,49.5C 385.16,52.1441 385.827,54.4775 387.5,56.5C 386.167,57.8333 384.833,59.1667 383.5,60.5C 383.709,61.086 384.043,61.586 384.5,62C 383.338,62.8271 382.171,63.6604 381,64.5C 379.862,64.0109 378.695,63.6775 377.5,63.5C 376.833,63.5 376.167,63.5 375.5,63.5C 375.489,61.9826 374.823,60.8159 373.5,60C 370.995,58.2467 368.329,56.7467 365.5,55.5C 355.861,56.2831 346.194,56.7831 336.5,57C 337.167,57.3333 337.833,57.6667 338.5,58C 337.584,58.2784 336.918,58.7784 336.5,59.5C 335.833,59.8333 335.167,60.1667 334.5,60.5C 329.394,61.7981 324.894,64.1314 321,67.5C 320.667,66.8333 320.333,66.1667 320,65.5C 319.506,67.1341 319.34,68.8008 319.5,70.5C 309.8,69.2799 300.134,69.6132 290.5,71.5C 287.423,70.3146 284.256,69.3146 281,68.5C 280.517,69.448 280.351,70.448 280.5,71.5C 282.604,71.2011 284.604,71.5344 286.5,72.5C 286.137,73.1835 285.804,73.8501 285.5,74.5C 281.952,75.2394 278.619,76.5728 275.5,78.5C 277.789,72.9248 279.789,67.2581 281.5,61.5C 282.906,61.0269 283.573,60.0269 283.5,58.5C 285.262,57.7377 286.262,56.4044 286.5,54.5C 288.587,53.4154 289.92,51.7488 290.5,49.5C 293.833,46.8333 296.833,43.8333 299.5,40.5C 301.749,39.9202 303.415,38.5869 304.5,36.5C 306.027,36.573 307.027,35.9063 307.5,34.5C 309.027,34.573 310.027,33.9063 310.5,32.5C 312.848,32.4077 314.514,31.4077 315.5,29.5C 318.491,29.8337 320.824,28.8337 322.5,26.5C 324.898,26.7406 326.898,26.0739 328.5,24.5C 329.833,24.5 331.167,24.5 332.5,24.5C 342.769,23.0517 353.102,22.385 363.5,22.5 Z"/></g>
<g><path style="opacity:0.353" fill="#fdc3bf" d="M 379.5,24.5 C 381.153,24.6596 382.486,25.3263 383.5,26.5C 381.62,26.7709 380.287,26.1042 379.5,24.5 Z"/></g>
<g><path style="opacity:1" fill="#e18878" d="M 322.5,26.5 C 320.824,28.8337 318.491,29.8337 315.5,29.5C 317.509,27.9348 319.843,26.9348 322.5,26.5 Z"/></g>
<g><path style="opacity:0.349" fill="#f9c7b9" d="M 386.5,27.5 C 388.153,27.6596 389.486,28.3263 390.5,29.5C 388.62,29.7709 387.287,29.1042 386.5,27.5 Z"/></g>
<g><path style="opacity:0.639" fill="#eea198" d="M 315.5,29.5 C 314.514,31.4077 312.848,32.4077 310.5,32.5C 311.659,30.7497 313.326,29.7497 315.5,29.5 Z"/></g>
<g><path style="opacity:0.769" fill="#ec9c93" d="M 310.5,32.5 C 310.027,33.9063 309.027,34.573 307.5,34.5C 307.973,33.0937 308.973,32.427 310.5,32.5 Z"/></g>
<g><path style="opacity:1" fill="#e37e75" d="M 394.5,31.5 C 398.736,33.4449 402.403,36.1116 405.5,39.5C 401.955,38.2967 398.622,36.63 395.5,34.5C 394.873,33.5832 394.539,32.5832 394.5,31.5 Z"/></g>
<g><path style="opacity:0.784" fill="#ea9b91" d="M 307.5,34.5 C 307.027,35.9063 306.027,36.573 304.5,36.5C 304.973,35.0937 305.973,34.427 307.5,34.5 Z"/></g>
<g><path style="opacity:1" fill="#e6493f" d="M 372.5,23.5 C 373.167,23.5 373.833,23.5 374.5,23.5C 376.216,23.6287 377.883,23.962 379.5,24.5C 380.287,26.1042 381.62,26.7709 383.5,26.5C 384.609,26.5569 385.609,26.8902 386.5,27.5C 387.287,29.1042 388.62,29.7709 390.5,29.5C 392.153,29.6596 393.486,30.3263 394.5,31.5C 394.539,32.5832 394.873,33.5832 395.5,34.5C 398.622,36.63 401.955,38.2967 405.5,39.5C 405.5,40.8333 405.5,42.1667 405.5,43.5C 401.5,46.1667 398.167,49.5 395.5,53.5C 394.5,53.8333 393.833,54.5 393.5,55.5C 391.833,56.5 390.5,57.8333 389.5,59.5C 386.833,61.8333 384.167,64.1667 381.5,66.5C 380.609,65.8902 379.609,65.5569 378.5,65.5C 378.167,64.8333 377.833,64.1667 377.5,63.5C 378.695,63.6775 379.862,64.0109 381,64.5C 382.171,63.6604 383.338,62.8271 384.5,62C 384.043,61.586 383.709,61.086 383.5,60.5C 384.833,59.1667 386.167,57.8333 387.5,56.5C 385.827,54.4775 385.16,52.1441 385.5,49.5C 388.993,49.9975 392.326,49.9975 395.5,49.5C 395.5,48.1667 395.5,46.8333 395.5,45.5C 392.813,45.6641 390.146,45.4974 387.5,45C 388.103,43.1746 388.77,41.3413 389.5,39.5C 391.943,41.0553 394.61,41.722 397.5,41.5C 396.36,38.8575 395.026,36.1908 393.5,33.5C 391.117,32.6134 388.784,31.6134 386.5,30.5C 384.527,31.3311 382.527,31.4978 380.5,31C 380.833,30.6667 381.167,30.3333 381.5,30C 378.105,28.2762 375.105,26.1095 372.5,23.5 Z"/></g>
<g><path style="opacity:0.898" fill="#e99289" d="M 304.5,36.5 C 303.415,38.5869 301.749,39.9202 299.5,40.5C 300.585,38.4131 302.251,37.0798 304.5,36.5 Z"/></g>
<g><path style="opacity:0.553" fill="#c5daf0" d="M 407.5,40.5 C 408.833,41.1667 409.833,42.1667 410.5,43.5C 409.391,43.4431 408.391,43.1098 407.5,42.5C 407.5,41.8333 407.5,41.1667 407.5,40.5 Z"/></g>
<g><path style="opacity:0.933" fill="#be6d8d" d="M 405.5,39.5 C 406.167,39.8333 406.833,40.1667 407.5,40.5C 407.5,41.1667 407.5,41.8333 407.5,42.5C 406.833,42.8333 406.167,43.1667 405.5,43.5C 405.5,42.1667 405.5,40.8333 405.5,39.5 Z"/></g>
<g><path style="opacity:0.655" fill="#f6b5b0" d="M 299.5,40.5 C 296.833,43.8333 293.833,46.8333 290.5,49.5C 292.5,45.5 295.5,42.5 299.5,40.5 Z"/></g>
<g><path style="opacity:1" fill="#98b3e7" d="M 410.5,43.5 C 412.914,44.9108 414.581,46.9108 415.5,49.5C 412.764,48.4274 411.097,46.4274 410.5,43.5 Z"/></g>
<g><path style="opacity:1" fill="#946799" d="M 405.5,43.5 C 405.631,44.2389 405.464,44.9056 405,45.5C 402.024,48.5299 398.857,51.1965 395.5,53.5C 398.167,49.5 401.5,46.1667 405.5,43.5 Z"/></g>
<g><path style="opacity:0.902" fill="#9bbdf0" d="M 415.5,49.5 C 417.587,50.5846 418.92,52.2512 419.5,54.5C 417.413,53.4154 416.08,51.7488 415.5,49.5 Z"/></g>
<g><path style="opacity:0.675" fill="#f1a098" d="M 290.5,49.5 C 289.92,51.7488 288.587,53.4154 286.5,54.5C 287.08,52.2512 288.413,50.5846 290.5,49.5 Z"/></g>
<g><path style="opacity:0.596" fill="#f1aaa4" d="M 286.5,54.5 C 286.262,56.4044 285.262,57.7377 283.5,58.5C 283.738,56.5956 284.738,55.2623 286.5,54.5 Z"/></g>
<g><path style="opacity:1" fill="#df4b41" d="M 375.5,63.5 C 373.716,63.1075 372.05,62.4408 370.5,61.5C 368.615,59.6885 366.281,58.5218 363.5,58C 354.38,57.0292 345.38,57.5292 336.5,59.5C 336.918,58.7784 337.584,58.2784 338.5,58C 337.833,57.6667 337.167,57.3333 336.5,57C 346.194,56.7831 355.861,56.2831 365.5,55.5C 368.329,56.7467 370.995,58.2467 373.5,60C 374.823,60.8159 375.489,61.9826 375.5,63.5 Z"/></g>
<g><path style="opacity:1" fill="#906898" d="M 393.5,55.5 C 393.262,57.4044 392.262,58.7377 390.5,59.5C 390.167,59.5 389.833,59.5 389.5,59.5C 390.5,57.8333 391.833,56.5 393.5,55.5 Z"/></g>
<g><path style="opacity:1" fill="#4385f4" d="M 407.5,42.5 C 408.391,43.1098 409.391,43.4431 410.5,43.5C 411.097,46.4274 412.764,48.4274 415.5,49.5C 416.08,51.7488 417.413,53.4154 419.5,54.5C 420.013,57.2092 421.013,59.7092 422.5,62C 421.327,64.5209 421.327,67.0209 422.5,69.5C 424.199,68.1854 425.865,68.1854 427.5,69.5C 428.079,72.3311 429.412,74.6644 431.5,76.5C 431.5,76.8333 431.5,77.1667 431.5,77.5C 430.916,80.285 431.916,81.9517 434.5,82.5C 435.833,83.5 437.167,84.5 438.5,85.5C 439.419,88.0892 441.086,90.0892 443.5,91.5C 444.167,91.5 444.5,91.8333 444.5,92.5C 444.738,94.4044 445.738,95.7377 447.5,96.5C 447.427,98.0269 448.094,99.0269 449.5,99.5C 449.427,101.027 450.094,102.027 451.5,102.5C 451.592,107.365 452.925,111.699 455.5,115.5C 455.989,116.995 456.655,118.329 457.5,119.5C 458.81,126.599 458.81,133.599 457.5,140.5C 455.777,142.78 455.111,145.447 455.5,148.5C 454.094,148.973 453.427,149.973 453.5,151.5C 450.462,154.539 448.795,158.206 448.5,162.5C 447.178,162.67 446.011,162.337 445,161.5C 443.748,164.014 443.248,166.68 443.5,169.5C 442.094,169.973 441.427,170.973 441.5,172.5C 441.5,173.167 441.167,173.5 440.5,173.5C 437.02,172.283 435.02,173.616 434.5,177.5C 433.5,177.5 432.5,177.5 431.5,177.5C 431.5,178.5 431.5,179.5 431.5,180.5C 429.109,182.362 426.442,183.696 423.5,184.5C 419.024,185.279 414.691,186.446 410.5,188C 391.76,188.18 373.093,188.68 354.5,189.5C 354.5,177.833 354.5,166.167 354.5,154.5C 371.513,154.833 388.513,154.499 405.5,153.5C 406.243,152.818 406.909,152.151 407.5,151.5C 410.554,151.646 412.554,150.313 413.5,147.5C 415.312,146.652 416.812,146.652 418,147.5C 418.732,143.885 420.065,140.552 422,137.5C 422.167,135 422.333,132.5 422.5,130C 422.475,127.071 421.809,124.571 420.5,122.5C 420.5,121.833 420.167,121.5 419.5,121.5C 419.741,118.966 418.741,117.3 416.5,116.5C 416.167,114.167 414.833,112.833 412.5,112.5C 410.685,109.593 408.019,108.259 404.5,108.5C 404.167,108.5 403.833,108.5 403.5,108.5C 402.432,107.566 401.099,107.232 399.5,107.5C 399.665,104.15 399.498,100.817 399,97.5C 398.722,96.5842 398.222,95.9175 397.5,95.5C 396.85,93.5648 396.517,91.5648 396.5,89.5C 397.144,85.0552 395.811,81.3885 392.5,78.5C 390.641,74.5908 388.974,70.5908 387.5,66.5C 388.977,64.361 389.977,62.0277 390.5,59.5C 392.262,58.7377 393.262,57.4044 393.5,55.5C 393.833,54.5 394.5,53.8333 395.5,53.5C 398.857,51.1965 402.024,48.5299 405,45.5C 405.464,44.9056 405.631,44.2389 405.5,43.5C 406.167,43.1667 406.833,42.8333 407.5,42.5 Z"/></g>
<g><path style="opacity:0.153" fill="#f3b0aa" d="M 370.5,61.5 C 358.513,57.5337 346.513,57.5337 334.5,61.5C 334.5,61.1667 334.5,60.8333 334.5,60.5C 335.167,60.1667 335.833,59.8333 336.5,59.5C 345.38,57.5292 354.38,57.0292 363.5,58C 366.281,58.5218 368.615,59.6885 370.5,61.5 Z"/></g>
<g><path style="opacity:0.243" fill="#fac9c0" d="M 283.5,58.5 C 283.573,60.0269 282.906,61.0269 281.5,61.5C 281.427,59.9731 282.094,58.9731 283.5,58.5 Z"/></g>
<g><path style="opacity:0.369" fill="#add1fb" d="M 423.5,60.5 C 424.906,60.9731 425.573,61.9731 425.5,63.5C 424.094,63.0269 423.427,62.0269 423.5,60.5 Z"/></g>
<g><path style="opacity:1" fill="#5d8fe9" d="M 419.5,54.5 C 421.822,55.8021 423.155,57.8021 423.5,60.5C 423.427,62.0269 424.094,63.0269 425.5,63.5C 426.674,64.5137 427.34,65.847 427.5,67.5C 427.5,68.1667 427.5,68.8333 427.5,69.5C 425.865,68.1854 424.199,68.1854 422.5,69.5C 421.327,67.0209 421.327,64.5209 422.5,62C 421.013,59.7092 420.013,57.2092 419.5,54.5 Z"/></g>
<g><path style="opacity:0.404" fill="#f5bba7" d="M 375.5,63.5 C 376.167,63.5 376.833,63.5 377.5,63.5C 377.833,64.1667 378.167,64.8333 378.5,65.5C 376.973,65.573 375.973,64.9063 375.5,63.5 Z"/></g>
<g><path style="opacity:1" fill="#9573a4" d="M 389.5,59.5 C 388.287,62.2254 386.454,64.5588 384,66.5C 383.517,67.448 383.351,68.448 383.5,69.5C 382.5,69.1667 381.833,68.5 381.5,67.5C 381.5,67.1667 381.5,66.8333 381.5,66.5C 384.167,64.1667 386.833,61.8333 389.5,59.5 Z"/></g>
<g><path style="opacity:1" fill="#e87568" d="M 334.5,60.5 C 334.5,60.8333 334.5,61.1667 334.5,61.5C 329.578,64.4131 324.912,67.7464 320.5,71.5C 320.167,71.5 319.833,71.5 319.5,71.5C 319.5,71.1667 319.5,70.8333 319.5,70.5C 319.34,68.8008 319.506,67.1341 320,65.5C 320.333,66.1667 320.667,66.8333 321,67.5C 324.894,64.1314 329.394,61.7981 334.5,60.5 Z"/></g>
<g><path style="opacity:0.608" fill="#e8aeb5" d="M 378.5,65.5 C 379.609,65.5569 380.609,65.8902 381.5,66.5C 381.5,66.8333 381.5,67.1667 381.5,67.5C 379.973,67.573 378.973,66.9063 378.5,65.5 Z"/></g>
<g><path style="opacity:1" fill="#6592eb" d="M 389.5,59.5 C 389.833,59.5 390.167,59.5 390.5,59.5C 389.977,62.0277 388.977,64.361 387.5,66.5C 388.974,70.5908 390.641,74.5908 392.5,78.5C 395.811,81.3885 397.144,85.0552 396.5,89.5C 394.036,83.9101 391.036,78.5767 387.5,73.5C 387.167,71.1667 385.833,69.8333 383.5,69.5C 383.351,68.448 383.517,67.448 384,66.5C 386.454,64.5588 388.287,62.2254 389.5,59.5 Z"/></g>
<g><path style="opacity:0.808" fill="#a7c6ef" d="M 383.5,69.5 C 385.833,69.8333 387.167,71.1667 387.5,73.5C 385.833,72.5 384.5,71.1667 383.5,69.5 Z"/></g>
<g><path style="opacity:0.996" fill="#e98e83" d="M 281.5,61.5 C 279.789,67.2581 277.789,72.9248 275.5,78.5C 274.662,78.8417 274.328,79.5084 274.5,80.5C 274.158,81.3382 273.492,81.6716 272.5,81.5C 274.438,74.2949 277.438,67.6283 281.5,61.5 Z"/></g>
<g><path style="opacity:1" fill="#e54e24" d="M 319.5,70.5 C 319.5,70.8333 319.5,71.1667 319.5,71.5C 307.964,70.7839 296.63,71.7839 285.5,74.5C 285.804,73.8501 286.137,73.1835 286.5,72.5C 284.604,71.5344 282.604,71.2011 280.5,71.5C 280.351,70.448 280.517,69.448 281,68.5C 284.256,69.3146 287.423,70.3146 290.5,71.5C 300.134,69.6132 309.8,69.2799 319.5,70.5 Z"/></g>
<g><path style="opacity:0.976" fill="#9db9ec" d="M 427.5,67.5 C 429.592,70.0884 430.925,73.0884 431.5,76.5C 429.412,74.6644 428.079,72.3311 427.5,69.5C 427.5,68.8333 427.5,68.1667 427.5,67.5 Z"/></g>
<g><path style="opacity:0.282" fill="#fce19a" d="M 319.5,71.5 C 319.833,71.5 320.167,71.5 320.5,71.5C 321.833,72.1667 323.167,72.8333 324.5,73.5C 322.219,73.9227 320.552,73.256 319.5,71.5 Z"/></g>
<g><path style="opacity:1" fill="#dd5a1d" d="M 285.5,74.5 C 282.001,76.7505 278.335,78.7505 274.5,80.5C 274.328,79.5084 274.662,78.8417 275.5,78.5C 278.619,76.5728 281.952,75.2394 285.5,74.5 Z"/></g>
<g><path style="opacity:1" fill="#f8d46b" d="M 325.5,73.5 C 330.262,74.7164 334.595,76.7164 338.5,79.5C 334.231,78.1973 329.897,77.1973 325.5,76.5C 325.5,75.5 325.5,74.5 325.5,73.5 Z"/></g>
<g><path style="opacity:0.965" fill="#f6dc7c" d="M 338.5,79.5 C 340.754,80.1237 342.421,81.457 343.5,83.5C 341.205,82.8645 339.539,81.5311 338.5,79.5 Z"/></g>
<g><path style="opacity:0.769" fill="#aac6f4" d="M 431.5,77.5 C 432.308,79.2202 433.308,80.8869 434.5,82.5C 431.916,81.9517 430.916,80.285 431.5,77.5 Z"/></g>
<g><path style="opacity:0.561" fill="#c0d5f6" d="M 438.5,85.5 C 440.914,86.9108 442.581,88.9108 443.5,91.5C 441.086,90.0892 439.419,88.0892 438.5,85.5 Z"/></g>
<g><path style="opacity:0.675" fill="#fae59b" d="M 269.5,84.5 C 267.167,87.5 264.5,90.1667 261.5,92.5C 263.167,88.8333 265.833,86.1667 269.5,84.5 Z"/></g>
<g><path style="opacity:0.863" fill="#9abfef" d="M 444.5,92.5 C 446.262,93.2623 447.262,94.5956 447.5,96.5C 445.738,95.7377 444.738,94.4044 444.5,92.5 Z"/></g>
<g><path style="opacity:1" fill="#f5cd4f" d="M 351.5,92.5 C 352.478,92.811 353.145,93.4777 353.5,94.5C 352.37,95.6223 351.703,96.9557 351.5,98.5C 349.167,101.5 346.5,104.167 343.5,106.5C 343.5,104.833 343.5,103.167 343.5,101.5C 344.833,101.5 346.167,101.5 347.5,101.5C 347.5,99.8333 347.5,98.1667 347.5,96.5C 350.142,96.5123 351.475,95.179 351.5,92.5 Z"/></g>
<g><path style="opacity:0.075" fill="#faeb9c" d="M 351.5,90.5 C 356.833,93.1667 356.833,95.8333 351.5,98.5C 351.703,96.9557 352.37,95.6223 353.5,94.5C 353.145,93.4777 352.478,92.811 351.5,92.5C 351.5,91.8333 351.5,91.1667 351.5,90.5 Z"/></g>
<g><path style="opacity:0.545" fill="#a1bcf2" d="M 447.5,96.5 C 448.906,96.9731 449.573,97.9731 449.5,99.5C 448.094,99.0269 447.427,98.0269 447.5,96.5 Z"/></g>
<g><path style="opacity:1" fill="#f4ca5b" d="M 261.5,92.5 C 260.217,94.6064 259.384,96.9398 259,99.5C 257.25,101.424 255.417,103.091 253.5,104.5C 254.998,99.6783 257.664,95.6783 261.5,92.5 Z"/></g>
<g><path style="opacity:0.345" fill="#bbd0f8" d="M 449.5,99.5 C 450.906,99.9731 451.573,100.973 451.5,102.5C 450.094,102.027 449.427,101.027 449.5,99.5 Z"/></g>
<g><path style="opacity:0.651" fill="#a4c3ec" d="M 397.5,95.5 C 398.222,95.9175 398.722,96.5842 399,97.5C 399.498,100.817 399.665,104.15 399.5,107.5C 401.099,107.232 402.432,107.566 403.5,108.5C 401.833,108.5 400.167,108.5 398.5,108.5C 398.261,104.158 397.927,99.8244 397.5,95.5 Z"/></g>
<g><path style="opacity:0.063" fill="#fcf19e" d="M 343.5,106.5 C 342.5,108.167 341.167,109.5 339.5,110.5C 339.833,108.167 341.167,106.833 343.5,106.5 Z"/></g>
<g><path style="opacity:0.918" fill="#9dbff0" d="M 404.5,108.5 C 408.019,108.259 410.685,109.593 412.5,112.5C 409.702,111.35 407.035,110.017 404.5,108.5 Z"/></g>
<g><path style="opacity:1" fill="#f9bc0b" d="M 319.5,71.5 C 320.552,73.256 322.219,73.9227 324.5,73.5C 324.833,73.5 325.167,73.5 325.5,73.5C 325.5,74.5 325.5,75.5 325.5,76.5C 329.897,77.1973 334.231,78.1973 338.5,79.5C 339.539,81.5311 341.205,82.8645 343.5,83.5C 346.764,85.0941 349.431,87.4275 351.5,90.5C 351.5,91.1667 351.5,91.8333 351.5,92.5C 351.475,95.179 350.142,96.5123 347.5,96.5C 347.5,98.1667 347.5,99.8333 347.5,101.5C 346.167,101.5 344.833,101.5 343.5,101.5C 343.5,103.167 343.5,104.833 343.5,106.5C 341.167,106.833 339.833,108.167 339.5,110.5C 339.5,111.167 339.167,111.5 338.5,111.5C 336.5,111.5 335.5,112.5 335.5,114.5C 334.167,116.5 332.5,118.167 330.5,119.5C 328.678,119.169 327.011,118.502 325.5,117.5C 324.5,114.5 322.5,112.5 319.5,111.5C 318.426,109.716 316.76,108.549 314.5,108C 309.98,107.186 305.646,107.353 301.5,108.5C 298.72,108.945 296.053,108.945 293.5,108.5C 291.998,109.083 290.665,109.916 289.5,111C 289.957,111.414 290.291,111.914 290.5,112.5C 288.955,113.452 287.288,113.785 285.5,113.5C 284.291,119.419 283.291,125.419 282.5,131.5C 282.348,134.726 283.348,137.393 285.5,139.5C 285.833,140.5 286.5,141.167 287.5,141.5C 289.471,143.808 291.471,146.142 293.5,148.5C 293.973,149.906 294.973,150.573 296.5,150.5C 296.5,150.833 296.5,151.167 296.5,151.5C 294.167,154.167 291.833,156.833 289.5,159.5C 283.49,164.51 278.157,170.177 273.5,176.5C 272.167,176.5 271.5,177.167 271.5,178.5C 270.167,177.833 269.167,176.833 268.5,175.5C 267.415,173.413 265.749,172.08 263.5,171.5C 261.937,170.055 260.604,168.389 259.5,166.5C 259.737,162.684 258.071,160.351 254.5,159.5C 254.5,159.167 254.5,158.833 254.5,158.5C 254.293,155.759 253.293,153.426 251.5,151.5C 251.741,149.102 251.074,147.102 249.5,145.5C 248.712,137.191 248.379,128.858 248.5,120.5C 248.5,119.833 248.5,119.167 248.5,118.5C 250.31,115.855 251.31,112.855 251.5,109.5C 251.402,107.447 252.069,105.78 253.5,104.5C 255.417,103.091 257.25,101.424 259,99.5C 259.384,96.9398 260.217,94.6064 261.5,92.5C 264.5,90.1667 267.167,87.5 269.5,84.5C 270.167,83.1667 271.167,82.1667 272.5,81.5C 273.492,81.6716 274.158,81.3382 274.5,80.5C 278.335,78.7505 282.001,76.7505 285.5,74.5C 296.63,71.7839 307.964,70.7839 319.5,71.5 Z"/></g>
<g><path style="opacity:1" fill="#f9d87b" d="M 301.5,108.5 C 305.646,107.353 309.98,107.186 314.5,108C 316.76,108.549 318.426,109.716 319.5,111.5C 313.8,108.949 307.8,107.949 301.5,108.5 Z"/></g>
<g><path style="opacity:1" fill="#7198e6" d="M 451.5,102.5 C 453.794,105.37 455.128,108.703 455.5,112.5C 455.5,113.5 455.5,114.5 455.5,115.5C 452.925,111.699 451.592,107.365 451.5,102.5 Z"/></g>
<g><path style="opacity:0.776" fill="#fbe799" d="M 319.5,111.5 C 322.5,112.5 324.5,114.5 325.5,117.5C 323.167,115.833 321.167,113.833 319.5,111.5 Z"/></g>
<g><path style="opacity:0.804" fill="#a1c1ee" d="M 412.5,112.5 C 414.833,112.833 416.167,114.167 416.5,116.5C 414.833,115.5 413.5,114.167 412.5,112.5 Z"/></g>
<g><path style="opacity:0.063" fill="#fbf39f" d="M 338.5,111.5 C 337.833,112.833 336.833,113.833 335.5,114.5C 335.5,112.5 336.5,111.5 338.5,111.5 Z"/></g>
<g><path style="opacity:0.651" fill="#fddf90" d="M 251.5,109.5 C 251.31,112.855 250.31,115.855 248.5,118.5C 248.528,115.084 249.528,112.084 251.5,109.5 Z"/></g>
<g><path style="opacity:0.965" fill="#97bcef" d="M 416.5,116.5 C 418.741,117.3 419.741,118.966 419.5,121.5C 418.263,120.035 417.263,118.368 416.5,116.5 Z"/></g>
<g><path style="opacity:0.012" fill="#fcf0a0" d="M 289.5,116.5 C 289.573,118.027 288.906,119.027 287.5,119.5C 287.427,117.973 288.094,116.973 289.5,116.5 Z"/></g>
<g><path style="opacity:0.561" fill="#abc8f6" d="M 455.5,112.5 C 456.924,114.515 457.59,116.848 457.5,119.5C 456.655,118.329 455.989,116.995 455.5,115.5C 455.5,114.5 455.5,113.5 455.5,112.5 Z"/></g>
<g><path style="opacity:0.961" fill="#f4da92" d="M 325.5,117.5 C 327.011,118.502 328.678,119.169 330.5,119.5C 328.012,122.112 326.345,121.446 325.5,117.5 Z"/></g>
<g><path style="opacity:1" fill="#f3c33a" d="M 301.5,108.5 C 297.226,110.645 293.226,113.312 289.5,116.5C 288.094,116.973 287.427,117.973 287.5,119.5C 287.672,120.492 287.338,121.158 286.5,121.5C 284.953,123.807 284.287,126.473 284.5,129.5C 284.505,131.696 284.838,133.696 285.5,135.5C 285.5,135.833 285.5,136.167 285.5,136.5C 285.5,137.5 285.5,138.5 285.5,139.5C 283.348,137.393 282.348,134.726 282.5,131.5C 283.291,125.419 284.291,119.419 285.5,113.5C 287.288,113.785 288.955,113.452 290.5,112.5C 290.291,111.914 289.957,111.414 289.5,111C 290.665,109.916 291.998,109.083 293.5,108.5C 296.053,108.945 298.72,108.945 301.5,108.5 Z"/></g>
<g><path style="opacity:0.688" fill="#fee088" d="M 248.5,120.5 C 248.379,128.858 248.712,137.191 249.5,145.5C 246.695,137.17 246.361,128.836 248.5,120.5 Z"/></g>
<g><path style="opacity:0.071" fill="#ffeea6" d="M 286.5,121.5 C 285.686,126.119 285.353,130.786 285.5,135.5C 284.838,133.696 284.505,131.696 284.5,129.5C 284.287,126.473 284.953,123.807 286.5,121.5 Z"/></g>
<g><path style="opacity:0.031" fill="#cfebfc" d="M 419.5,121.5 C 420.167,121.5 420.5,121.833 420.5,122.5C 421.794,126.934 421.794,131.267 420.5,135.5C 420.647,130.786 420.314,126.119 419.5,121.5 Z"/></g>
<g><path style="opacity:0.859" fill="#fcdd88" d="M 285.5,136.5 C 286.537,137.93 287.204,139.597 287.5,141.5C 286.5,141.167 285.833,140.5 285.5,139.5C 285.5,138.5 285.5,137.5 285.5,136.5 Z"/></g>
<g><path style="opacity:0.949" fill="#90b2f0" d="M 457.5,140.5 C 457.706,143.495 457.04,146.162 455.5,148.5C 455.111,145.447 455.777,142.78 457.5,140.5 Z"/></g>
<g><path style="opacity:1" fill="#6d97e3" d="M 420.5,122.5 C 421.809,124.571 422.475,127.071 422.5,130C 422.333,132.5 422.167,135 422,137.5C 420.065,140.552 418.732,143.885 418,147.5C 416.812,146.652 415.312,146.652 413.5,147.5C 416.856,144.124 419.19,140.124 420.5,135.5C 421.794,131.267 421.794,126.934 420.5,122.5 Z"/></g>
<g><path style="opacity:0.012" fill="#fce996" d="M 249.5,145.5 C 251.074,147.102 251.741,149.102 251.5,151.5C 249.926,149.898 249.259,147.898 249.5,145.5 Z"/></g>
<g><path style="opacity:0.012" fill="#fdef9d" d="M 293.5,148.5 C 295.027,148.427 296.027,149.094 296.5,150.5C 294.973,150.573 293.973,149.906 293.5,148.5 Z"/></g>
<g><path style="opacity:1" fill="#84a6e6" d="M 413.5,147.5 C 412.554,150.313 410.554,151.646 407.5,151.5C 409.205,149.808 411.205,148.475 413.5,147.5 Z"/></g>
<g><path style="opacity:0.878" fill="#94b7e7" d="M 455.5,148.5 C 455.405,150.786 454.738,152.786 453.5,154.5C 453.5,153.5 453.5,152.5 453.5,151.5C 453.427,149.973 454.094,148.973 455.5,148.5 Z"/></g>
<g><path style="opacity:0.302" fill="#fce393" d="M 251.5,151.5 C 253.293,153.426 254.293,155.759 254.5,158.5C 252.707,156.574 251.707,154.241 251.5,151.5 Z"/></g>
<g><path style="opacity:0.196" fill="#c9eae0" d="M 296.5,151.5 C 296.5,151.167 296.5,150.833 296.5,150.5C 298.564,150.687 300.564,151.187 302.5,152C 336.165,152.5 369.832,152.667 403.5,152.5C 387.008,153.497 370.342,153.83 353.5,153.5C 336.167,153.5 318.833,153.5 301.5,153.5C 300.07,152.463 298.403,151.796 296.5,151.5 Z"/></g>
<g><path style="opacity:1" fill="#35a853" d="M 296.5,151.5 C 298.403,151.796 300.07,152.463 301.5,153.5C 317.992,154.497 334.658,154.83 351.5,154.5C 351.5,166.167 351.5,177.833 351.5,189.5C 333.5,189.5 315.5,189.5 297.5,189.5C 295.901,189.768 294.568,189.434 293.5,188.5C 291.485,187.076 289.152,186.41 286.5,186.5C 283.621,184.032 280.288,182.365 276.5,181.5C 274.566,180.89 272.899,179.89 271.5,178.5C 271.5,177.167 272.167,176.5 273.5,176.5C 279.538,171.463 284.871,165.797 289.5,159.5C 291.833,156.833 294.167,154.167 296.5,151.5 Z"/></g>
<g><path style="opacity:1" fill="#79a0e9" d="M 453.5,151.5 C 453.5,152.5 453.5,153.5 453.5,154.5C 451.404,160.369 448.071,165.369 443.5,169.5C 443.248,166.68 443.748,164.014 445,161.5C 446.011,162.337 447.178,162.67 448.5,162.5C 448.795,158.206 450.462,154.539 453.5,151.5 Z"/></g>
<g><path style="opacity:1" fill="#5fae87" d="M 301.5,153.5 C 318.833,153.5 336.167,153.5 353.5,153.5C 353.5,165.5 353.5,177.5 353.5,189.5C 353.5,189.833 353.5,190.167 353.5,190.5C 334.659,190.83 315.993,190.497 297.5,189.5C 315.5,189.5 333.5,189.5 351.5,189.5C 351.5,177.833 351.5,166.167 351.5,154.5C 334.658,154.83 317.992,154.497 301.5,153.5 Z"/></g>
<g><path style="opacity:1" fill="#f5d368" d="M 254.5,159.5 C 258.071,160.351 259.737,162.684 259.5,166.5C 257.478,164.469 255.811,162.135 254.5,159.5 Z"/></g>
<g><path style="opacity:1" fill="#4a8cdb" d="M 407.5,151.5 C 406.909,152.151 406.243,152.818 405.5,153.5C 388.513,154.499 371.513,154.833 354.5,154.5C 354.5,166.167 354.5,177.833 354.5,189.5C 354.167,189.5 353.833,189.5 353.5,189.5C 353.5,177.5 353.5,165.5 353.5,153.5C 370.342,153.83 387.008,153.497 403.5,152.5C 404.568,151.566 405.901,151.232 407.5,151.5 Z"/></g>
<g><path style="opacity:1" fill="#81a82a" d="M 289.5,159.5 C 284.871,165.797 279.538,171.463 273.5,176.5C 278.157,170.177 283.49,164.51 289.5,159.5 Z"/></g>
<g><path style="opacity:0.012" fill="#d2e4f7" d="M 443.5,169.5 C 443.573,171.027 442.906,172.027 441.5,172.5C 441.427,170.973 442.094,169.973 443.5,169.5 Z"/></g>
<g><path style="opacity:0.686" fill="#fce39a" d="M 263.5,171.5 C 265.749,172.08 267.415,173.413 268.5,175.5C 266.251,174.92 264.585,173.587 263.5,171.5 Z"/></g>
<g><path style="opacity:1" fill="#7fa4e7" d="M 440.5,173.5 C 437.81,176.185 434.81,178.518 431.5,180.5C 431.5,179.5 431.5,178.5 431.5,177.5C 432.5,177.5 433.5,177.5 434.5,177.5C 435.02,173.616 437.02,172.283 440.5,173.5 Z"/></g>
<g><path style="opacity:1" fill="#86c396" d="M 276.5,181.5 C 280.288,182.365 283.621,184.032 286.5,186.5C 282.569,185.868 279.235,184.201 276.5,181.5 Z"/></g>
<g><path style="opacity:0.686" fill="#a2d4a9" d="M 286.5,186.5 C 289.152,186.41 291.485,187.076 293.5,188.5C 290.848,188.59 288.515,187.924 286.5,186.5 Z"/></g>
<g><path style="opacity:0.993" fill="#7ea1e7" d="M 423.5,184.5 C 418.688,187.511 413.354,189.344 407.5,190C 389.503,190.5 371.503,190.667 353.5,190.5C 353.5,190.167 353.5,189.833 353.5,189.5C 353.833,189.5 354.167,189.5 354.5,189.5C 373.093,188.68 391.76,188.18 410.5,188C 414.691,186.446 419.024,185.279 423.5,184.5 Z"/></g>
<g><path style="opacity:1" fill="#75777b" d="M 61.5,215.5 C 69.1288,214.015 76.7955,214.348 84.5,216.5C 85.287,218.104 86.6203,218.771 88.5,218.5C 93.6839,220.26 98.0172,223.26 101.5,227.5C 99.0164,230.484 96.3497,233.318 93.5,236C 92.0024,236.585 91.0024,236.085 90.5,234.5C 90.0269,233.094 89.0269,232.427 87.5,232.5C 82.0255,229.782 76.3588,228.115 70.5,227.5C 73.2469,227.813 75.9135,227.48 78.5,226.5C 77.9747,225.808 77.3081,225.308 76.5,225C 78.5,224 80.5,223 82.5,222C 81.552,221.517 80.552,221.351 79.5,221.5C 79.528,219.418 78.8613,217.584 77.5,216C 72.1771,215.501 66.8437,215.334 61.5,215.5 Z"/></g>
<g><path style="opacity:0.89" fill="#9b9e9f" d="M 61.5,215.5 C 57.767,217.411 53.767,218.744 49.5,219.5C 53.0845,217.194 57.0845,215.861 61.5,215.5 Z"/></g>
<g><path style="opacity:0.396" fill="#c7c9c9" d="M 84.5,216.5 C 86.153,216.66 87.4863,217.326 88.5,218.5C 86.6203,218.771 85.287,218.104 84.5,216.5 Z"/></g>
<g><path style="opacity:0.58" fill="#b6b6b9" d="M 460.5,224.5 C 453.529,223.71 446.529,223.377 439.5,223.5C 446.449,221.398 453.449,221.731 460.5,224.5 Z"/></g>
<g><path style="opacity:0.72" fill="#b0b1b3" d="M 307.5,217.5 C 312.5,217.5 317.5,217.5 322.5,217.5C 322.667,246.169 322.5,274.835 322,303.5C 317.333,304.833 312.667,304.833 308,303.5C 307.5,274.835 307.333,246.169 307.5,217.5 Z"/></g>
<g><path style="opacity:1" fill="#5e6165" d="M 309.5,218.5 C 313.167,218.5 316.833,218.5 320.5,218.5C 320.5,246.5 320.5,274.5 320.5,302.5C 316.833,302.5 313.167,302.5 309.5,302.5C 309.5,274.5 309.5,246.5 309.5,218.5 Z"/></g>
<g><path style="opacity:1" fill="#606368" d="M 498.5,224.5 C 498.5,250.833 498.5,277.167 498.5,303.5C 495.167,303.5 491.833,303.5 488.5,303.5C 488.5,277.167 488.5,250.833 488.5,224.5C 491.833,224.5 495.167,224.5 498.5,224.5 Z"/></g>
<g><path style="opacity:0.069" fill="#f2f2fe" d="M 498.5,224.5 C 499.498,250.995 499.831,277.661 499.5,304.5C 495.629,304.815 491.962,304.482 488.5,303.5C 491.833,303.5 495.167,303.5 498.5,303.5C 498.5,277.167 498.5,250.833 498.5,224.5 Z"/></g>
<g><path style="opacity:0.165" fill="#e6e7eb" d="M 671.5,303.5 C 674.833,303.5 678.167,303.5 681.5,303.5C 681.5,277.167 681.5,250.833 681.5,224.5C 678.167,224.5 674.833,224.5 671.5,224.5C 671.5,234.167 671.5,243.833 671.5,253.5C 671.167,253.5 670.833,253.5 670.5,253.5C 670.5,243.5 670.5,233.5 670.5,223.5C 674.5,223.5 678.5,223.5 682.5,223.5C 682.5,250.5 682.5,277.5 682.5,304.5C 678.629,304.815 674.962,304.482 671.5,303.5 Z"/></g>
<g><path style="opacity:0.447" fill="#c1c1c4" d="M 87.5,232.5 C 89.0269,232.427 90.0269,233.094 90.5,234.5C 88.9731,234.573 87.9731,233.906 87.5,232.5 Z"/></g>
<g><path style="opacity:0.749" fill="#adafb1" d="M 423.5,230.5 C 422.415,232.587 420.749,233.92 418.5,234.5C 419.585,232.413 421.251,231.08 423.5,230.5 Z"/></g>
<g><path style="opacity:0.749" fill="#b5b9bb" d="M 418.5,234.5 C 417.92,236.749 416.587,238.415 414.5,239.5C 415.08,237.251 416.413,235.585 418.5,234.5 Z"/></g>
<g><path style="opacity:0.302" fill="#cececf" d="M 31.5,235.5 C 31.573,237.027 30.9063,238.027 29.5,238.5C 29.427,236.973 30.0937,235.973 31.5,235.5 Z"/></g>
<g><path style="opacity:1" fill="#848688" d="M 460.5,224.5 C 467.472,226.137 473.139,229.803 477.5,235.5C 475.466,238.369 472.966,240.702 470,242.5C 467.684,241.35 465.85,239.683 464.5,237.5C 466.094,237.92 467.594,238.586 469,239.5C 470.221,238.728 471.221,237.728 472,236.5C 472.893,237.711 473.726,237.711 474.5,236.5C 473.975,235.808 473.308,235.308 472.5,235C 473.866,232.562 473.366,232.062 471,233.5C 468.71,231.123 466.377,228.79 464,226.5C 463.667,227.5 463.333,228.5 463,229.5C 462.228,228.151 461.061,227.318 459.5,227C 461.619,226.658 461.953,225.825 460.5,224.5 Z"/></g>
<g><path style="opacity:0.154" fill="#e6e6eb" d="M 498.5,224.5 C 495.167,224.5 491.833,224.5 488.5,224.5C 488.5,250.833 488.5,277.167 488.5,303.5C 487.502,277.005 487.169,250.339 487.5,223.5C 491.371,223.185 495.038,223.518 498.5,224.5 Z"/></g>
<g><path style="opacity:0.994" fill="#a7a9ac" d="M 29.5,238.5 C 28.0167,243.617 26.3501,248.617 24.5,253.5C 24.7923,247.956 26.4589,242.956 29.5,238.5 Z"/></g>
<g><path style="opacity:1" fill="#6a6c70" d="M 439.5,223.5 C 446.529,223.377 453.529,223.71 460.5,224.5C 461.953,225.825 461.619,226.658 459.5,227C 461.061,227.318 462.228,228.151 463,229.5C 463.333,228.5 463.667,227.5 464,226.5C 466.377,228.79 468.71,231.123 471,233.5C 473.366,232.062 473.866,232.562 472.5,235C 473.308,235.308 473.975,235.808 474.5,236.5C 473.726,237.711 472.893,237.711 472,236.5C 471.221,237.728 470.221,238.728 469,239.5C 467.594,238.586 466.094,237.92 464.5,237.5C 464.027,236.094 463.027,235.427 461.5,235.5C 445.192,230.236 431.859,234.236 421.5,247.5C 420.069,248.78 419.402,250.447 419.5,252.5C 414.955,271.058 420.955,284.724 437.5,293.5C 440.695,295.03 444.195,295.696 448,295.5C 450.5,295.333 453,295.167 455.5,295C 456.416,294.722 457.082,294.222 457.5,293.5C 463.026,290.977 468.026,287.644 472.5,283.5C 474.521,284.855 476.188,286.521 477.5,288.5C 477.833,289.833 478.167,291.167 478.5,292.5C 467.697,303.769 454.697,307.769 439.5,304.5C 437.485,303.076 435.152,302.41 432.5,302.5C 430.181,302.008 428.181,301.008 426.5,299.5C 426.027,298.094 425.027,297.427 423.5,297.5C 422.089,295.086 420.089,293.419 417.5,292.5C 407.853,281.957 404.52,269.624 407.5,255.5C 409.31,252.855 410.31,249.855 410.5,246.5C 411.079,243.669 412.412,241.336 414.5,239.5C 416.587,238.415 417.92,236.749 418.5,234.5C 420.749,233.92 422.415,232.587 423.5,230.5C 427.887,226.251 433.22,223.918 439.5,223.5 Z"/></g>
<g><path style="opacity:0.424" fill="#c0c1c2" d="M 461.5,235.5 C 463.027,235.427 464.027,236.094 464.5,237.5C 462.973,237.573 461.973,236.906 461.5,235.5 Z"/></g>
<g><path style="opacity:0.706" fill="#acadb0" d="M 546.5,249.5 C 538.046,247.891 529.712,248.224 521.5,250.5C 522.842,249.207 524.509,248.374 526.5,248C 529.333,247.833 532.167,247.667 535,247.5C 539.133,247.286 542.966,247.952 546.5,249.5 Z"/></g>
<g><path style="opacity:0.737" fill="#a2a3a6" d="M 660.5,248.5 C 656.154,248.334 651.821,248.501 647.5,249C 645.939,249.318 644.772,250.151 644,251.5C 643.329,250.748 642.496,250.414 641.5,250.5C 642.6,249.442 643.934,248.608 645.5,248C 648.095,247.774 650.595,247.274 653,246.5C 655.607,247.123 658.107,247.79 660.5,248.5 Z"/></g>
<g><path style="opacity:0.906" fill="#a3a4a6" d="M 348.5,247.5 C 346.898,249.074 344.898,249.741 342.5,249.5C 344.102,247.926 346.102,247.259 348.5,247.5 Z"/></g>
<g><path style="opacity:0.278" fill="#c8c8cb" d="M 219.5,248.5 C 222.089,248.461 224.089,249.461 225.5,251.5C 223.181,251.008 221.181,250.008 219.5,248.5 Z"/></g>
<g><path style="opacity:0.443" fill="#c2c4c5" d="M 40.5,247.5 C 40.405,249.786 39.7384,251.786 38.5,253.5C 38.2594,251.102 38.9261,249.102 40.5,247.5 Z"/></g>
<g><path style="opacity:0.255" fill="#cfd0d2" d="M 421.5,247.5 C 421.598,249.553 420.931,251.22 419.5,252.5C 419.402,250.447 420.069,248.78 421.5,247.5 Z"/></g>
<g><path style="opacity:1" fill="#5f6166" d="M 609.5,249.5 C 612.5,249.5 615.5,249.5 618.5,249.5C 618.5,267.167 618.5,284.833 618.5,302.5C 615.5,302.5 612.5,302.5 609.5,302.5C 609.5,300.5 609.5,298.5 609.5,296.5C 611.506,295.834 613.34,295.834 615,296.5C 615.667,290.833 615.667,285.167 615,279.5C 614.193,283.449 613.693,283.449 613.5,279.5C 611.876,279.36 610.71,280.027 610,281.5C 609.5,270.839 609.333,260.172 609.5,249.5 Z"/></g>
<g><path style="opacity:0.71" fill="#aaacae" d="M 410.5,246.5 C 410.31,249.855 409.31,252.855 407.5,255.5C 407.528,252.084 408.528,249.084 410.5,246.5 Z"/></g>
<g><path style="opacity:0.627" fill="#c9c9cb" d="M 371.5,252.5 C 373.587,253.585 374.92,255.251 375.5,257.5C 373.413,256.415 372.08,254.749 371.5,252.5 Z"/></g>
<g><path style="opacity:0.522" fill="#acadb0" d="M 111.5,274.5 C 111.5,268.5 111.5,262.5 111.5,256.5C 97.8333,256.5 84.1667,256.5 70.5,256.5C 70.5,260.167 70.5,263.833 70.5,267.5C 80.1667,267.5 89.8333,267.5 99.5,267.5C 99.7845,269.415 99.4511,271.081 98.5,272.5C 98.5,271.167 98.5,269.833 98.5,268.5C 88.8333,268.5 79.1667,268.5 69.5,268.5C 69.5,264.167 69.5,259.833 69.5,255.5C 83.8333,255.5 98.1667,255.5 112.5,255.5C 113.748,262.029 113.415,268.362 111.5,274.5 Z"/></g>
<g><path style="opacity:0.608" fill="#b7babc" d="M 164.5,253.5 C 167.167,254.167 168.833,255.833 169.5,258.5C 167.167,257.5 165.5,255.833 164.5,253.5 Z"/></g>
<g><path style="opacity:0.694" fill="#b8babc" d="M 335.5,254.5 C 335.262,256.404 334.262,257.738 332.5,258.5C 332.738,256.596 333.738,255.262 335.5,254.5 Z"/></g>
<g><path style="opacity:0.502" fill="#c8cacc" d="M 517.5,253.5 C 516.5,255.167 515.167,256.5 513.5,257.5C 513.833,255.167 515.167,253.833 517.5,253.5 Z"/></g>
<g><path style="opacity:0.494" fill="#c2c2c3" d="M 637.5,253.5 C 636.833,254.833 635.833,255.833 634.5,256.5C 634.5,254.5 635.5,253.5 637.5,253.5 Z"/></g>
<g><path style="opacity:0.624" fill="#bec1c5" d="M 128.5,252.5 C 126.5,255.167 124.167,257.5 121.5,259.5C 122.833,256.167 125.167,253.833 128.5,252.5 Z"/></g>
<g><path style="opacity:0.851" fill="#aaabae" d="M 188.5,255.5 C 187.92,257.749 186.587,259.415 184.5,260.5C 185.08,258.251 186.413,256.585 188.5,255.5 Z"/></g>
<g><path style="opacity:0.272" fill="#d1d1d4" d="M 287.5,249.5 C 291.634,248.515 295.968,248.182 300.5,248.5C 300.83,268.34 300.497,288.007 299.5,307.5C 299.5,288.167 299.5,268.833 299.5,249.5C 295.5,249.5 291.5,249.5 287.5,249.5 Z"/></g>
<g><path style="opacity:0.478" fill="#babbbe" d="M 375.5,257.5 C 376.906,257.973 377.573,258.973 377.5,260.5C 376.094,260.027 375.427,259.027 375.5,257.5 Z"/></g>
<g><path style="opacity:0.999" fill="#64676c" d="M 287.5,249.5 C 291.5,249.5 295.5,249.5 299.5,249.5C 299.5,268.833 299.5,288.167 299.5,307.5C 299.784,309.415 299.451,311.081 298.5,312.5C 297.262,314.214 296.595,316.214 296.5,318.5C 293.171,325.162 287.837,329.162 280.5,330.5C 274.131,330.653 267.797,330.32 261.5,329.5C 254.897,327.23 250.231,322.897 247.5,316.5C 247.5,315.5 247.5,314.5 247.5,313.5C 247.842,312.662 248.508,312.328 249.5,312.5C 250.822,312.33 251.989,312.663 253,313.5C 254.825,310.149 256.992,309.816 259.5,312.5C 260.167,315.167 261.833,316.833 264.5,317.5C 269.833,318.833 275.167,318.833 280.5,317.5C 282.833,317.167 284.167,315.833 284.5,313.5C 286.306,308.996 287.139,304.329 287,299.5C 284.9,302.467 282.066,304.3 278.5,305C 267.74,307.235 258.74,304.402 251.5,296.5C 251.573,294.973 250.906,293.973 249.5,293.5C 248.094,293.027 247.427,292.027 247.5,290.5C 246.871,287.603 245.871,284.936 244.5,282.5C 244.232,276.044 244.899,269.711 246.5,263.5C 255.007,247.417 267.674,242.917 284.5,250C 286.557,253.3 287.557,253.133 287.5,249.5 Z M 277.5,259.5 C 281.12,261.453 284.12,264.119 286.5,267.5C 287.314,272.119 287.647,276.786 287.5,281.5C 287.5,281.833 287.5,282.167 287.5,282.5C 285.58,285.762 283.246,288.762 280.5,291.5C 276.247,293.371 271.914,293.704 267.5,292.5C 264.418,290.628 261.751,288.295 259.5,285.5C 257.372,279.939 257.039,274.272 258.5,268.5C 259.338,268.158 259.672,267.492 259.5,266.5C 261.63,264.873 263.63,263.04 265.5,261C 269.395,259.734 273.395,259.234 277.5,259.5 Z"/></g>
<g><path style="opacity:1" fill="#a0a1a6" d="M 277.5,259.5 C 273.395,259.234 269.395,259.734 265.5,261C 263.63,263.04 261.63,264.873 259.5,266.5C 259.343,265.127 259.51,263.793 260,262.5C 261.827,261.341 263.493,260.008 265,258.5C 269.21,258.329 273.377,258.662 277.5,259.5 Z"/></g>
<g><path style="opacity:0.396" fill="#bebfc0" d="M 332.5,258.5 C 332.573,260.027 331.906,261.027 330.5,261.5C 330.427,259.973 331.094,258.973 332.5,258.5 Z"/></g>
<g><path style="opacity:0.255" fill="#d3d5d8" d="M 557.5,258.5 C 558.906,258.973 559.573,259.973 559.5,261.5C 558.094,261.027 557.427,260.027 557.5,258.5 Z"/></g>
<g><path style="opacity:0.275" fill="#d0d1d2" d="M 121.5,259.5 C 121.573,261.027 120.906,262.027 119.5,262.5C 119.427,260.973 120.094,259.973 121.5,259.5 Z"/></g>
<g><path style="opacity:1" fill="#686b6f" d="M 164.5,253.5 C 165.5,255.833 167.167,257.5 169.5,258.5C 170.906,258.973 171.573,259.973 171.5,261.5C 171.427,263.027 172.094,264.027 173.5,264.5C 173.5,264.833 173.5,265.167 173.5,265.5C 174.307,271.464 174.64,277.464 174.5,283.5C 174.405,285.786 173.738,287.786 172.5,289.5C 171.094,289.973 170.427,290.973 170.5,292.5C 168.015,297.15 164.348,300.65 159.5,303C 152.826,305.475 146.159,305.975 139.5,304.5C 137.485,303.076 135.152,302.41 132.5,302.5C 131.29,302.068 130.29,301.401 129.5,300.5C 129.027,299.094 128.027,298.427 126.5,298.5C 122.613,295.728 119.946,292.061 118.5,287.5C 117.669,280.869 117.336,274.202 117.5,267.5C 117.796,265.597 118.463,263.93 119.5,262.5C 120.906,262.027 121.573,261.027 121.5,259.5C 124.167,257.5 126.5,255.167 128.5,252.5C 133.246,248.22 138.913,246.22 145.5,246.5C 149.985,246.538 154.319,247.371 158.5,249C 161.106,249.792 163.106,251.292 164.5,253.5 Z M 150.5,259.5 C 152.456,260.492 154.456,261.492 156.5,262.5C 156.5,263.167 156.833,263.5 157.5,263.5C 157.427,265.027 158.094,266.027 159.5,266.5C 163.149,275.216 161.816,283.049 155.5,290C 144.363,295.675 136.196,292.842 131,281.5C 128.528,266.141 135.028,258.808 150.5,259.5 Z"/></g>
<g><path style="opacity:0.902" fill="#a7a7aa" d="M 150.5,259.5 C 153.313,259.025 155.313,260.025 156.5,262.5C 154.456,261.492 152.456,260.492 150.5,259.5 Z"/></g>
<g><path style="opacity:0.184" fill="#dadadd" d="M 184.5,260.5 C 184.573,262.027 183.906,263.027 182.5,263.5C 182.427,261.973 183.094,260.973 184.5,260.5 Z"/></g>
<g><path style="opacity:0.302" fill="#c8c8ca" d="M 234.5,260.5 C 235.906,260.973 236.573,261.973 236.5,263.5C 235.094,263.027 234.427,262.027 234.5,260.5 Z"/></g>
<g><path style="opacity:1" fill="#66686d" d="M 546.5,249.5 C 551.068,251.402 554.735,254.402 557.5,258.5C 557.427,260.027 558.094,261.027 559.5,261.5C 559.69,264.855 560.69,267.855 562.5,270.5C 563.833,274.5 563.833,278.5 562.5,282.5C 561.262,284.214 560.595,286.214 560.5,288.5C 559.603,287.402 558.77,287.402 558,288.5C 557.506,290.134 557.34,291.801 557.5,293.5C 555.213,293.724 553.047,294.391 551,295.5C 546.81,294.179 545.977,295.179 548.5,298.5C 548.833,297.833 549.167,297.167 549.5,296.5C 550.386,297.325 550.719,298.325 550.5,299.5C 546.941,299.35 545.275,300.683 545.5,303.5C 544.432,304.434 543.099,304.768 541.5,304.5C 535.797,304.625 530.13,304.292 524.5,303.5C 518.624,301.622 514.291,297.955 511.5,292.5C 510.537,289.256 509.204,286.256 507.5,283.5C 506.206,279.066 506.206,274.733 507.5,270.5C 509.31,267.855 510.31,264.855 510.5,261.5C 510.738,259.596 511.738,258.262 513.5,257.5C 515.167,256.5 516.5,255.167 517.5,253.5C 518.262,251.738 519.596,250.738 521.5,250.5C 529.712,248.224 538.046,247.891 546.5,249.5 Z M 550.5,267.5 C 551.314,272.119 551.647,276.786 551.5,281.5C 550.637,283.421 549.971,285.421 549.5,287.5C 547.167,289.167 545.167,291.167 543.5,293.5C 543.167,293.5 542.833,293.5 542.5,293.5C 538.232,294.373 533.898,294.706 529.5,294.5C 528.329,293.655 526.995,292.989 525.5,292.5C 524.167,290.5 522.5,288.833 520.5,287.5C 519.375,283.878 518.375,280.211 517.5,276.5C 518.183,272.725 519.183,269.059 520.5,265.5C 521.906,265.027 522.573,264.027 522.5,262.5C 533.642,254.708 542.975,256.375 550.5,267.5 Z"/></g>
<g><path style="opacity:0.267" fill="#d0d0d3" d="M 631.5,260.5 C 631.573,262.027 630.906,263.027 629.5,263.5C 629.427,261.973 630.094,260.973 631.5,260.5 Z"/></g>
<g><path style="opacity:0.196" fill="#d1d1d4" d="M 171.5,261.5 C 172.906,261.973 173.573,262.973 173.5,264.5C 172.094,264.027 171.427,263.027 171.5,261.5 Z"/></g>
<g><path style="opacity:1" fill="#65676c" d="M 219.5,248.5 C 221.181,250.008 223.181,251.008 225.5,251.5C 229.5,253.5 232.5,256.5 234.5,260.5C 234.427,262.027 235.094,263.027 236.5,263.5C 238.006,269.731 238.673,276.064 238.5,282.5C 237.262,284.214 236.595,286.214 236.5,288.5C 236.155,291.198 234.822,293.198 232.5,294.5C 231.094,294.973 230.427,295.973 230.5,297.5C 226.683,301.409 222.016,303.742 216.5,304.5C 210.471,304.575 204.471,304.241 198.5,303.5C 196.847,303.34 195.514,302.674 194.5,301.5C 194.027,300.094 193.027,299.427 191.5,299.5C 186.193,296.201 182.86,291.534 181.5,285.5C 181.326,278.465 181.659,271.465 182.5,264.5C 182.5,264.167 182.5,263.833 182.5,263.5C 183.906,263.027 184.573,262.027 184.5,260.5C 186.587,259.415 187.92,257.749 188.5,255.5C 197.402,246.691 207.735,244.357 219.5,248.5 Z M 218.5,261.5 C 219.167,262.833 220.167,263.833 221.5,264.5C 222.263,266.368 223.263,268.035 224.5,269.5C 225.207,272.786 225.54,276.119 225.5,279.5C 224.542,281.302 223.875,283.302 223.5,285.5C 221.167,287.167 219.167,289.167 217.5,291.5C 217.167,291.5 216.833,291.5 216.5,291.5C 214.135,292.008 211.801,292.675 209.5,293.5C 207.199,292.675 204.865,292.008 202.5,291.5C 199.833,289.5 197.5,287.167 195.5,284.5C 192.793,278.023 193.126,271.69 196.5,265.5C 202.86,259.193 210.194,257.859 218.5,261.5 Z"/></g>
<g><path style="opacity:0.706" fill="#bdbec1" d="M 218.5,261.5 C 220.5,261.5 221.5,262.5 221.5,264.5C 220.167,263.833 219.167,262.833 218.5,261.5 Z"/></g>
<g><path style="opacity:0.004" fill="#d9d9da" d="M 522.5,262.5 C 522.573,264.027 521.906,265.027 520.5,265.5C 520.427,263.973 521.094,262.973 522.5,262.5 Z"/></g>
<g><path style="opacity:0.004" fill="#dfdfe0" d="M 157.5,263.5 C 158.906,263.973 159.573,264.973 159.5,266.5C 158.094,266.027 157.427,265.027 157.5,263.5 Z"/></g>
<g><path style="opacity:0.82" fill="#bebfc1" d="M 221.5,264.5 C 223.741,265.3 224.741,266.966 224.5,269.5C 223.263,268.035 222.263,266.368 221.5,264.5 Z"/></g>
<g><path style="opacity:0.965" fill="#a1a5a8" d="M 510.5,261.5 C 510.31,264.855 509.31,267.855 507.5,270.5C 507.528,267.084 508.528,264.084 510.5,261.5 Z"/></g>
<g><path style="opacity:0.933" fill="#a9aaac" d="M 559.5,261.5 C 561.472,264.084 562.472,267.084 562.5,270.5C 560.69,267.855 559.69,264.855 559.5,261.5 Z"/></g>
<g><path style="opacity:0.991" fill="#a3a4a8" d="M 196.5,265.5 C 193.126,271.69 192.793,278.023 195.5,284.5C 193.933,283.319 193.099,281.653 193,279.5C 192.959,275.57 192.793,271.737 192.5,268C 193.693,266.905 195.027,266.072 196.5,265.5 Z"/></g>
<g><path style="opacity:0.547" fill="#aeb0b3" d="M 582.5,287.5 C 581.778,287.082 581.278,286.416 581,285.5C 580.5,273.505 580.333,261.505 580.5,249.5C 577.5,249.5 574.5,249.5 571.5,249.5C 571.5,262.833 571.5,276.167 571.5,289.5C 570.504,276.01 570.171,262.344 570.5,248.5C 574.167,248.5 577.833,248.5 581.5,248.5C 581.265,261.526 581.599,274.526 582.5,287.5 Z"/></g>
<g><path style="opacity:0.231" fill="#e5e5e7" d="M 608.5,303.5 C 612.042,303.813 615.375,303.479 618.5,302.5C 618.5,284.833 618.5,267.167 618.5,249.5C 615.5,249.5 612.5,249.5 609.5,249.5C 608.833,261.167 608.167,272.833 607.5,284.5C 607.5,272.5 607.5,260.5 607.5,248.5C 611.5,248.5 615.5,248.5 619.5,248.5C 619.5,267.167 619.5,285.833 619.5,304.5C 615.629,304.815 611.962,304.482 608.5,303.5 Z"/></g>
<g><path style="opacity:0.698" fill="#a3a4a7" d="M 224.5,269.5 C 225.972,271.117 226.639,273.117 226.5,275.5C 226.489,277.045 226.156,278.378 225.5,279.5C 225.54,276.119 225.207,272.786 224.5,269.5 Z"/></g>
<g><path style="opacity:0.89" fill="#a5a7a9" d="M 182.5,264.5 C 181.659,271.465 181.326,278.465 181.5,285.5C 178.662,278.368 178.995,271.368 182.5,264.5 Z"/></g>
<g><path style="opacity:0.133" fill="#cfcfd2" d="M 286.5,267.5 C 288.047,269.807 288.713,272.473 288.5,275.5C 288.495,277.696 288.162,279.696 287.5,281.5C 287.647,276.786 287.314,272.119 286.5,267.5 Z"/></g>
<g><path style="opacity:0.106" fill="#d8d8dd" d="M 550.5,267.5 C 552.047,269.807 552.713,272.473 552.5,275.5C 552.495,277.696 552.162,279.696 551.5,281.5C 551.647,276.786 551.314,272.119 550.5,267.5 Z"/></g>
<g><path style="opacity:0.651" fill="#b4b6b8" d="M 117.5,267.5 C 117.336,274.202 117.669,280.869 118.5,287.5C 116.952,283.966 116.286,280.133 116.5,276C 116.502,272.979 116.836,270.146 117.5,267.5 Z"/></g>
<g><path style="opacity:0.565" fill="#bcbcc0" d="M 173.5,265.5 C 175.03,268.695 175.696,272.195 175.5,276C 175.497,278.69 175.164,281.19 174.5,283.5C 174.64,277.464 174.307,271.464 173.5,265.5 Z"/></g>
<g><path style="opacity:0.871" fill="#a5a4a8" d="M 330.5,261.5 C 328.729,269.353 328.062,277.353 328.5,285.5C 325.678,277.241 326.345,269.241 330.5,261.5 Z"/></g>
<g><path style="opacity:0.412" fill="#bdbec3" d="M 246.5,263.5 C 244.899,269.711 244.232,276.044 244.5,282.5C 242.826,275.942 243.492,269.609 246.5,263.5 Z"/></g>
<g><path style="opacity:0.008" fill="#dcdcdd" d="M 111.5,274.5 C 111.59,277.152 110.924,279.485 109.5,281.5C 109.41,278.848 110.076,276.515 111.5,274.5 Z"/></g>
<g><path style="opacity:0.153" fill="#d6d7d9" d="M 236.5,263.5 C 239.427,269.629 240.093,275.962 238.5,282.5C 238.673,276.064 238.006,269.731 236.5,263.5 Z"/></g>
<g><path style="opacity:0.012" fill="#dddddf" d="M 360.5,277.5 C 359.486,278.674 358.153,279.34 356.5,279.5C 357.287,277.896 358.62,277.229 360.5,277.5 Z"/></g>
<g><path style="opacity:0.871" fill="#b6b8ba" d="M 30.5,283.5 C 32.4456,284.035 33.4456,285.368 33.5,287.5C 32.0256,286.564 31.0256,285.23 30.5,283.5 Z"/></g>
<g><path style="opacity:0.776" fill="#b9bbbd" d="M 258.5,268.5 C 257.039,274.272 257.372,279.939 259.5,285.5C 257.14,283.089 256.14,280.089 256.5,276.5C 256.382,273.514 257.048,270.848 258.5,268.5 Z"/></g>
<g><path style="opacity:0.004" fill="#e0e1e1" d="M 238.5,282.5 C 238.741,284.898 238.074,286.898 236.5,288.5C 236.595,286.214 237.262,284.214 238.5,282.5 Z"/></g>
<g><path style="opacity:1" fill="#676a6e" d="M 371.5,252.5 C 372.08,254.749 373.413,256.415 375.5,257.5C 375.427,259.027 376.094,260.027 377.5,260.5C 379.79,263.077 380.956,266.077 381,269.5C 374.317,272.593 367.484,275.26 360.5,277.5C 358.62,277.229 357.287,277.896 356.5,279.5C 351.614,281.105 347.28,283.438 343.5,286.5C 343.833,288.833 345.167,290.167 347.5,290.5C 356.523,294.349 364.357,292.682 371,285.5C 373.262,286.713 375.429,288.046 377.5,289.5C 378.167,290.833 378.833,292.167 379.5,293.5C 378.85,293.196 378.183,292.863 377.5,292.5C 376.41,293.727 375.076,294.56 373.5,295C 376.277,297.173 376.11,297.673 373,296.5C 372.228,297.849 371.061,298.682 369.5,299C 368.733,300.47 368.067,301.97 367.5,303.5C 366.391,304.29 365.058,304.79 363.5,305C 358.833,305.667 354.167,305.667 349.5,305C 346.401,304.613 343.734,303.446 341.5,301.5C 341.027,300.094 340.027,299.427 338.5,299.5C 337.5,299.167 336.833,298.5 336.5,297.5C 336.167,296.5 335.5,295.833 334.5,295.5C 332.457,294.421 331.124,292.754 330.5,290.5C 330.598,288.447 329.931,286.78 328.5,285.5C 328.062,277.353 328.729,269.353 330.5,261.5C 331.906,261.027 332.573,260.027 332.5,258.5C 334.262,257.738 335.262,256.404 335.5,254.5C 337.296,252.1 339.63,250.433 342.5,249.5C 344.898,249.741 346.898,249.074 348.5,247.5C 356.994,245.206 364.66,246.873 371.5,252.5 Z M 341.5,274.5 C 340.709,272.691 340.709,270.691 341.5,268.5C 346.268,259.783 353.268,257.283 362.5,261C 363.5,262 364.5,263 365.5,264C 357.275,267.232 349.275,270.732 341.5,274.5 Z"/></g>
<g><path style="opacity:0.616" fill="#aaabae" d="M 341.5,268.5 C 340.709,270.691 340.709,272.691 341.5,274.5C 341.44,275.043 341.107,275.376 340.5,275.5C 339.164,272.859 339.498,270.526 341.5,268.5 Z"/></g>
<g><path style="opacity:0.027" fill="#d4d5d8" d="M 562.5,282.5 C 562.741,284.898 562.074,286.898 560.5,288.5C 560.595,286.214 561.262,284.214 562.5,282.5 Z"/></g>
<g><path style="opacity:0.973" fill="#919194" d="M 259.5,285.5 C 261.751,288.295 264.418,290.628 267.5,292.5C 266.504,292.414 265.671,292.748 265,293.5C 263.891,291.185 262.057,289.685 259.5,289C 258.829,288.014 258.829,286.847 259.5,285.5 Z"/></g>
<g><path style="opacity:0.659" fill="#c9c9cc" d="M 343.5,286.5 C 345.167,287.5 346.5,288.833 347.5,290.5C 345.167,290.167 343.833,288.833 343.5,286.5 Z"/></g>
<g><path style="opacity:0.651" fill="#a5a5a7" d="M 287.5,282.5 C 287.103,286.908 284.77,289.908 280.5,291.5C 283.246,288.762 285.58,285.762 287.5,282.5 Z"/></g>
<g><path style="opacity:0.251" fill="#d2d2d4" d="M 328.5,285.5 C 329.931,286.78 330.598,288.447 330.5,290.5C 329.069,289.22 328.402,287.553 328.5,285.5 Z"/></g>
<g><path style="opacity:0.69" fill="#c5c5c8" d="M 520.5,287.5 C 522.5,288.833 524.167,290.5 525.5,292.5C 522.833,291.833 521.167,290.167 520.5,287.5 Z"/></g>
<g><path style="opacity:0.635" fill="#b2b4ba" d="M 223.5,285.5 C 222.5,288.5 220.5,290.5 217.5,291.5C 219.167,289.167 221.167,287.167 223.5,285.5 Z"/></g>
<g><path style="opacity:0.176" fill="#d3d5d6" d="M 244.5,282.5 C 245.871,284.936 246.871,287.603 247.5,290.5C 245.345,288.383 244.345,285.716 244.5,282.5 Z"/></g>
<g><path style="opacity:0.29" fill="#c6c6c9" d="M 507.5,283.5 C 509.204,286.256 510.537,289.256 511.5,292.5C 509.026,290.102 507.692,287.102 507.5,283.5 Z"/></g>
<g><path style="opacity:0.624" fill="#acafb1" d="M 549.5,287.5 C 548.5,290.5 546.5,292.5 543.5,293.5C 545.167,291.167 547.167,289.167 549.5,287.5 Z"/></g>
<g><path style="opacity:0.486" fill="#c5c7c9" d="M 477.5,288.5 C 479.519,289.538 479.853,290.872 478.5,292.5C 478.167,291.167 477.833,289.833 477.5,288.5 Z"/></g>
<g><path style="opacity:1" fill="#65676c" d="M 61.5,215.5 C 66.8437,215.334 72.1771,215.501 77.5,216C 78.8613,217.584 79.528,219.418 79.5,221.5C 80.552,221.351 81.552,221.517 82.5,222C 80.5,223 78.5,224 76.5,225C 77.3081,225.308 77.9747,225.808 78.5,226.5C 75.9135,227.48 73.2469,227.813 70.5,227.5C 59.5451,228.062 50.7117,232.728 44,241.5C 43.059,243.727 41.8923,245.727 40.5,247.5C 38.9261,249.102 38.2594,251.102 38.5,253.5C 38.5,257.833 38.5,262.167 38.5,266.5C 38.3455,269.716 39.3455,272.383 41.5,274.5C 42.6737,275.514 43.3404,276.847 43.5,278.5C 45.1667,282.167 47.8333,284.833 51.5,286.5C 54.8987,288.199 58.232,289.866 61.5,291.5C 67.3188,292.653 73.3188,292.819 79.5,292C 81.6526,291.901 83.3192,291.067 84.5,289.5C 85.8993,288.11 87.5659,287.11 89.5,286.5C 92.5,285.5 94.5,283.5 95.5,280.5C 96.5014,277.828 97.5014,275.162 98.5,272.5C 99.4511,271.081 99.7845,269.415 99.5,267.5C 89.8333,267.5 80.1667,267.5 70.5,267.5C 70.5,263.833 70.5,260.167 70.5,256.5C 84.1667,256.5 97.8333,256.5 111.5,256.5C 111.5,262.5 111.5,268.5 111.5,274.5C 110.076,276.515 109.41,278.848 109.5,281.5C 108.054,286.061 105.387,289.728 101.5,292.5C 100.5,292.833 99.8333,293.5 99.5,294.5C 95.3231,299.429 89.9898,302.596 83.5,304C 75.811,305.68 68.1443,305.846 60.5,304.5C 57.855,302.69 54.855,301.69 51.5,301.5C 49.847,301.34 48.5137,300.674 47.5,299.5C 47.0269,298.094 46.0269,297.427 44.5,297.5C 43.4154,295.413 41.7488,294.08 39.5,293.5C 37.1667,291.833 35.1667,289.833 33.5,287.5C 33.4456,285.368 32.4456,284.035 30.5,283.5C 24.6338,274.309 22.6338,264.309 24.5,253.5C 26.3501,248.617 28.0167,243.617 29.5,238.5C 30.9063,238.027 31.573,237.027 31.5,235.5C 35.9363,228.396 41.9363,223.063 49.5,219.5C 53.767,218.744 57.767,217.411 61.5,215.5 Z"/></g>
<g><path style="opacity:0.718" fill="#a9a8ad" d="M 95.5,280.5 C 94.5,283.5 92.5,285.5 89.5,286.5C 91.1667,284.167 93.1667,282.167 95.5,280.5 Z"/></g>
<g><path style="opacity:0.8" fill="#c1c2c4" d="M 43.5,278.5 C 46.5,280.833 49.1667,283.5 51.5,286.5C 47.8333,284.833 45.1667,282.167 43.5,278.5 Z"/></g>
<g><path style="opacity:0.682" fill="#bbbbbf" d="M 38.5,266.5 C 39.871,268.936 40.871,271.603 41.5,274.5C 39.3455,272.383 38.3455,269.716 38.5,266.5 Z"/></g>
<g><path style="opacity:0.698" fill="#c1c1c4" d="M 84.5,289.5 C 83.3192,291.067 81.6526,291.901 79.5,292C 73.3188,292.819 67.3188,292.653 61.5,291.5C 69.2961,291.925 76.9628,291.258 84.5,289.5 Z"/></g>
<g><path style="opacity:0.165" fill="#d5d6d7" d="M 172.5,289.5 C 172.573,291.027 171.906,292.027 170.5,292.5C 170.427,290.973 171.094,289.973 172.5,289.5 Z"/></g>
<g><path style="opacity:0.427" fill="#cbcbcd" d="M 377.5,289.5 C 381.446,290.345 382.112,292.012 379.5,294.5C 379.5,294.167 379.5,293.833 379.5,293.5C 378.833,292.167 378.167,290.833 377.5,289.5 Z"/></g>
<g><path style="opacity:0.69" fill="#c3c3c4" d="M 417.5,292.5 C 420.089,293.419 422.089,295.086 423.5,297.5C 420.911,296.581 418.911,294.914 417.5,292.5 Z"/></g>
<g><path style="opacity:0.851" fill="#b1b2b5" d="M 39.5,293.5 C 41.7488,294.08 43.4154,295.413 44.5,297.5C 42.2512,296.92 40.5846,295.587 39.5,293.5 Z"/></g>
<g><path style="opacity:0.004" fill="#d7d8d9" d="M 101.5,292.5 C 101.5,293.833 100.833,294.5 99.5,294.5C 99.8333,293.5 100.5,292.833 101.5,292.5 Z"/></g>
<g><path style="opacity:0.776" fill="#a4a6aa" d="M 202.5,291.5 C 204.865,292.008 207.199,292.675 209.5,293.5C 211.801,292.675 214.135,292.008 216.5,291.5C 216.389,292.117 216.056,292.617 215.5,293C 210.673,295.391 206.339,294.891 202.5,291.5 Z"/></g>
<g><path style="opacity:0.02" fill="#d6d6d8" d="M 249.5,293.5 C 250.906,293.973 251.573,294.973 251.5,296.5C 250.094,296.027 249.427,295.027 249.5,293.5 Z"/></g>
<g><path style="opacity:0.365" fill="#c1c2c7" d="M 437.5,293.5 C 444.174,294.783 450.841,294.783 457.5,293.5C 457.082,294.222 456.416,294.722 455.5,295C 453,295.167 450.5,295.333 448,295.5C 444.195,295.696 440.695,295.03 437.5,293.5 Z"/></g>
<g><path style="opacity:0.016" fill="#e2e3e4" d="M 542.5,293.5 C 542.389,294.117 542.056,294.617 541.5,295C 537.311,295.812 533.311,295.645 529.5,294.5C 533.898,294.706 538.232,294.373 542.5,293.5 Z"/></g>
<g><path style="opacity:1" fill="#7b7d81" d="M 560.5,288.5 C 557.868,295.798 552.868,300.798 545.5,303.5C 545.275,300.683 546.941,299.35 550.5,299.5C 550.719,298.325 550.386,297.325 549.5,296.5C 549.167,297.167 548.833,297.833 548.5,298.5C 545.977,295.179 546.81,294.179 551,295.5C 553.047,294.391 555.213,293.724 557.5,293.5C 557.34,291.801 557.506,290.134 558,288.5C 558.77,287.402 559.603,287.402 560.5,288.5 Z"/></g>
<g><path style="opacity:0.999" fill="#6a6c71" d="M 671.5,303.5 C 671.662,301.473 671.495,299.473 671,297.5C 663.11,305.637 653.944,307.637 643.5,303.5C 643.027,302.094 642.027,301.427 640.5,301.5C 631.469,295.787 626.803,287.453 626.5,276.5C 626.616,271.913 627.616,267.58 629.5,263.5C 630.906,263.027 631.573,262.027 631.5,260.5C 631.738,258.596 632.738,257.262 634.5,256.5C 635.833,255.833 636.833,254.833 637.5,253.5C 638.262,251.738 639.596,250.738 641.5,250.5C 642.496,250.414 643.329,250.748 644,251.5C 644.772,250.151 645.939,249.318 647.5,249C 651.821,248.501 656.154,248.334 660.5,248.5C 662.38,248.229 663.713,248.896 664.5,250.5C 663.213,251.528 662.046,251.195 661,249.5C 659.278,249.611 659.112,250.111 660.5,251C 658.285,251.17 656.285,251.837 654.5,253C 655.748,254.4 656.748,255.9 657.5,257.5C 649.348,257.237 643.348,260.57 639.5,267.5C 637.953,269.807 637.287,272.473 637.5,275.5C 637.505,277.696 637.838,279.696 638.5,281.5C 639.363,283.421 640.029,285.421 640.5,287.5C 641.167,290.167 642.833,291.833 645.5,292.5C 646.71,292.932 647.71,293.599 648.5,294.5C 652.598,296.955 656.932,297.122 661.5,295C 662.056,294.617 662.389,294.117 662.5,293.5C 664.142,292.197 665.809,290.864 667.5,289.5C 666.65,291.585 666.316,293.585 666.5,295.5C 668.135,296.681 669.802,296.681 671.5,295.5C 672.474,297.743 672.808,300.076 672.5,302.5C 675.167,302.5 677.833,302.5 680.5,302.5C 680.5,276.833 680.5,251.167 680.5,225.5C 677.833,225.5 675.167,225.5 672.5,225.5C 672.832,236.187 672.499,246.854 671.5,257.5C 670.702,257.043 670.369,256.376 670.5,255.5C 671.338,255.158 671.672,254.492 671.5,253.5C 671.5,243.833 671.5,234.167 671.5,224.5C 674.833,224.5 678.167,224.5 681.5,224.5C 681.5,250.833 681.5,277.167 681.5,303.5C 678.167,303.5 674.833,303.5 671.5,303.5 Z M 657.5,257.5 C 659.843,258.344 662.176,259.344 664.5,260.5C 666.916,262.908 668.916,265.574 670.5,268.5C 670.942,272.154 671.276,275.821 671.5,279.5C 670.593,281.657 669.927,283.99 669.5,286.5C 668.094,286.973 667.427,287.973 667.5,289.5C 665.809,290.864 664.142,292.197 662.5,293.5C 657.878,295.165 653.211,295.498 648.5,294.5C 647.71,293.599 646.71,292.932 645.5,292.5C 644.167,290.5 642.5,288.833 640.5,287.5C 640.029,285.421 639.363,283.421 638.5,281.5C 638.353,276.786 638.686,272.119 639.5,267.5C 643.348,260.57 649.348,257.237 657.5,257.5 Z"/></g>
<g><path style="opacity:0.341" fill="#d0d0d1" d="M 669.5,286.5 C 669.573,288.027 668.906,289.027 667.5,289.5C 667.427,287.973 668.094,286.973 669.5,286.5 Z"/></g>
<g><path style="opacity:0.698" fill="#cacccd" d="M 640.5,287.5 C 642.5,288.833 644.167,290.5 645.5,292.5C 642.833,291.833 641.167,290.167 640.5,287.5 Z"/></g>
<g><path style="opacity:0.631" fill="#a3a4a7" d="M 670.5,268.5 C 672.569,272.044 672.902,275.71 671.5,279.5C 671.276,275.821 670.942,272.154 670.5,268.5 Z"/></g>
<g><path style="opacity:0.129" fill="#d2d4d6" d="M 639.5,267.5 C 638.686,272.119 638.353,276.786 638.5,281.5C 637.838,279.696 637.505,277.696 637.5,275.5C 637.287,272.473 637.953,269.807 639.5,267.5 Z"/></g>
<g><path style="opacity:0.941" fill="#aaabae" d="M 657.5,257.5 C 660.631,256.908 662.964,257.908 664.5,260.5C 662.176,259.344 659.843,258.344 657.5,257.5 Z"/></g>
<g><path style="opacity:1" fill="#606367" d="M 667.5,289.5 C 668.906,289.027 669.573,288.027 669.5,286.5C 669.927,283.99 670.593,281.657 671.5,279.5C 672.902,275.71 672.569,272.044 670.5,268.5C 668.916,265.574 666.916,262.908 664.5,260.5C 662.964,257.908 660.631,256.908 657.5,257.5C 656.748,255.9 655.748,254.4 654.5,253C 656.285,251.837 658.285,251.17 660.5,251C 659.112,250.111 659.278,249.611 661,249.5C 662.046,251.195 663.213,251.528 664.5,250.5C 666.062,250.733 667.395,251.4 668.5,252.5C 668.427,254.027 669.094,255.027 670.5,255.5C 670.369,256.376 670.702,257.043 671.5,257.5C 672.499,246.854 672.832,236.187 672.5,225.5C 675.167,225.5 677.833,225.5 680.5,225.5C 680.5,251.167 680.5,276.833 680.5,302.5C 677.833,302.5 675.167,302.5 672.5,302.5C 672.808,300.076 672.474,297.743 671.5,295.5C 669.802,296.681 668.135,296.681 666.5,295.5C 666.316,293.585 666.65,291.585 667.5,289.5 Z"/></g>
<g><path style="opacity:0.58" fill="#c6c6c8" d="M 668.5,252.5 C 669.167,252.833 669.833,253.167 670.5,253.5C 670.5,254.167 670.5,254.833 670.5,255.5C 669.094,255.027 668.427,254.027 668.5,252.5 Z"/></g>
<g><path style="opacity:0.004" fill="#dedfe0" d="M 232.5,294.5 C 232.573,296.027 231.906,297.027 230.5,297.5C 230.427,295.973 231.094,294.973 232.5,294.5 Z"/></g>
<g><path style="opacity:1" fill="#67696e" d="M 582.5,287.5 C 583.614,290.449 585.614,292.615 588.5,294C 597.933,296.617 604.266,293.451 607.5,284.5C 608.167,272.833 608.833,261.167 609.5,249.5C 609.333,260.172 609.5,270.839 610,281.5C 610.71,280.027 611.876,279.36 613.5,279.5C 613.693,283.449 614.193,283.449 615,279.5C 615.667,285.167 615.667,290.833 615,296.5C 613.34,295.834 611.506,295.834 609.5,296.5C 608.508,296.328 607.842,296.662 607.5,297.5C 600.832,305.387 592.499,307.554 582.5,304C 579.405,303.065 577.071,301.231 575.5,298.5C 575.573,296.973 574.906,295.973 573.5,295.5C 571.926,293.898 571.259,291.898 571.5,289.5C 571.5,276.167 571.5,262.833 571.5,249.5C 574.5,249.5 577.5,249.5 580.5,249.5C 580.333,261.505 580.5,273.505 581,285.5C 581.278,286.416 581.778,287.082 582.5,287.5 Z"/></g>
<g><path style="opacity:0.571" fill="#b7b9bc" d="M 662.5,293.5 C 662.389,294.117 662.056,294.617 661.5,295C 656.932,297.122 652.598,296.955 648.5,294.5C 653.211,295.498 657.878,295.165 662.5,293.5 Z"/></g>
<g><path style="opacity:0.004" fill="#dbdbdc" d="M 334.5,295.5 C 335.5,295.833 336.167,296.5 336.5,297.5C 335.167,297.5 334.5,296.833 334.5,295.5 Z"/></g>
<g><path style="opacity:0.102" fill="#d7d7dd" d="M 573.5,295.5 C 574.906,295.973 575.573,296.973 575.5,298.5C 574.094,298.027 573.427,297.027 573.5,295.5 Z"/></g>
<g><path style="opacity:0.341" fill="#c7c7c7" d="M 44.5,297.5 C 46.0269,297.427 47.0269,298.094 47.5,299.5C 45.9731,299.573 44.9731,298.906 44.5,297.5 Z"/></g>
<g><path style="opacity:0.427" fill="#bfc0c0" d="M 423.5,297.5 C 425.027,297.427 426.027,298.094 426.5,299.5C 424.973,299.573 423.973,298.906 423.5,297.5 Z"/></g>
<g><path style="opacity:0.373" fill="#c9c9ca" d="M 126.5,298.5 C 128.027,298.427 129.027,299.094 129.5,300.5C 127.973,300.573 126.973,299.906 126.5,298.5 Z"/></g>
<g><path style="opacity:0.982" fill="#828388" d="M 379.5,293.5 C 379.5,293.833 379.5,294.167 379.5,294.5C 376.224,298.471 372.224,301.471 367.5,303.5C 368.067,301.97 368.733,300.47 369.5,299C 371.061,298.682 372.228,297.849 373,296.5C 376.11,297.673 376.277,297.173 373.5,295C 375.076,294.56 376.41,293.727 377.5,292.5C 378.183,292.863 378.85,293.196 379.5,293.5 Z"/></g>
<g><path style="opacity:0.306" fill="#d0d1d2" d="M 191.5,299.5 C 193.027,299.427 194.027,300.094 194.5,301.5C 192.973,301.573 191.973,300.906 191.5,299.5 Z"/></g>
<g><path style="opacity:0.388" fill="#c4c4c5" d="M 338.5,299.5 C 340.027,299.427 341.027,300.094 341.5,301.5C 339.973,301.573 338.973,300.906 338.5,299.5 Z"/></g>
<g><path style="opacity:0.655" fill="#b5b6b8" d="M 51.5,301.5 C 54.855,301.69 57.855,302.69 60.5,304.5C 57.0836,304.472 54.0836,303.472 51.5,301.5 Z"/></g>
<g><path style="opacity:0.835" fill="#a8a9aa" d="M 132.5,302.5 C 135.152,302.41 137.485,303.076 139.5,304.5C 136.848,304.59 134.515,303.924 132.5,302.5 Z"/></g>
<g><path style="opacity:0.725" fill="#96989b" d="M 607.5,297.5 C 607.842,296.662 608.508,296.328 609.5,296.5C 609.5,298.5 609.5,300.5 609.5,302.5C 612.5,302.5 615.5,302.5 618.5,302.5C 615.375,303.479 612.042,303.813 608.5,303.5C 608.795,301.265 608.461,299.265 607.5,297.5 Z"/></g>
<g><path style="opacity:0.337" fill="#c4c8c9" d="M 640.5,301.5 C 642.027,301.427 643.027,302.094 643.5,303.5C 641.973,303.573 640.973,302.906 640.5,301.5 Z"/></g>
<g><path style="opacity:0.631" fill="#adaeaf" d="M 432.5,302.5 C 435.152,302.41 437.485,303.076 439.5,304.5C 436.848,304.59 434.515,303.924 432.5,302.5 Z"/></g>
<g><path style="opacity:0.329" fill="#c5c5c5" d="M 198.5,303.5 C 204.471,304.241 210.471,304.575 216.5,304.5C 214.359,305.163 212.025,305.497 209.5,305.5C 205.553,305.637 201.886,304.97 198.5,303.5 Z"/></g>
<g><path style="opacity:0.529" fill="#bebdc3" d="M 524.5,303.5 C 530.13,304.292 535.797,304.625 541.5,304.5C 539.359,305.163 537.025,305.497 534.5,305.5C 530.859,305.685 527.526,305.019 524.5,303.5 Z"/></g>
<g><path style="opacity:0.986" fill="#9b9c9e" d="M 259.5,312.5 C 256.992,309.816 254.825,310.149 253,313.5C 251.989,312.663 250.822,312.33 249.5,312.5C 251.867,311.086 254.367,309.752 257,308.5C 258.481,309.471 259.315,310.804 259.5,312.5 Z"/></g>
<g><path style="opacity:0.667" fill="#c2c5c6" d="M 259.5,312.5 C 261.5,313.833 263.167,315.5 264.5,317.5C 261.833,316.833 260.167,315.167 259.5,312.5 Z"/></g>
<g><path style="opacity:0.675" fill="#bababd" d="M 247.5,313.5 C 247.5,314.5 247.5,315.5 247.5,316.5C 245.015,315.26 245.015,314.26 247.5,313.5 Z"/></g>
<g><path style="opacity:0.604" fill="#b5b6bc" d="M 284.5,313.5 C 284.167,315.833 282.833,317.167 280.5,317.5C 281.5,315.833 282.833,314.5 284.5,313.5 Z"/></g>
<g><path style="opacity:0.004" fill="#dadbde" d="M 298.5,312.5 C 298.741,314.898 298.074,316.898 296.5,318.5C 296.595,316.214 297.262,314.214 298.5,312.5 Z"/></g>
<g><path style="opacity:0.663" fill="#afaeb2" d="M 261.5,329.5 C 267.797,330.32 274.131,330.653 280.5,330.5C 278.022,331.164 275.355,331.497 272.5,331.5C 268.531,331.706 264.865,331.039 261.5,329.5 Z"/></g>
</svg>
